<svg width="24" height="25" viewBox="0 0 24 25" fill="none" xmlns="http://www.w3.org/2000/svg">
<path d="M4.4918 9.66395V10.664C4.86112 10.664 5.20036 10.4604 5.37416 10.1345L4.4918 9.66395ZM6.98361 4.99182V3.99182C6.6143 3.99182 6.27505 4.19537 6.10125 4.52123L6.98361 4.99182ZM2 9.66395V8.66395C1.44772 8.66395 1 9.11167 1 9.66395H2ZM2 16.5164H1C1 17.0687 1.44772 17.5164 2 17.5164V16.5164ZM4.49184 16.5164H5.49184C5.49184 15.9641 5.04412 15.5164 4.49184 15.5164V16.5164ZM9.47544 16.5164V15.5164C8.92316 15.5164 8.47544 15.9641 8.47544 16.5164H9.47544ZM13.2131 16.5164H14.2131C14.2131 15.9641 13.7654 15.5164 13.2131 15.5164V16.5164ZM18.1967 16.5164L18.1967 15.5164C17.6444 15.5164 17.1967 15.9641 17.1967 16.5164H18.1967ZM21 16.5164L21 17.5164C21.5523 17.5164 22 17.0687 22 16.5164H21ZM21 9.66395H22C22 9.11167 21.5523 8.66395 21 8.66395V9.66395ZM16.6393 9.66395L15.7819 10.1784C15.9626 10.4797 16.2881 10.664 16.6393 10.664V9.66395ZM13.8361 4.99182L14.6936 4.47733C14.5128 4.17612 14.1873 3.99182 13.8361 3.99182V4.99182ZM5.37416 10.1345L7.86596 5.46241L6.10125 4.52123L3.60945 9.19336L5.37416 10.1345ZM2 10.664H4.4918V8.66395H2V10.664ZM3 16.5164V9.66395H1V16.5164H3ZM4.49184 15.5164H2V17.5164H4.49184V15.5164ZM5.49184 16.5164V16.5164H3.49184V16.5164H5.49184ZM6.98364 18.0082C6.15974 18.0082 5.49184 17.3403 5.49184 16.5164H3.49184C3.49184 18.4449 5.05517 20.0082 6.98364 20.0082V18.0082ZM8.47544 16.5164C8.47544 17.3403 7.80754 18.0082 6.98364 18.0082V20.0082C8.91211 20.0082 10.4754 18.4449 10.4754 16.5164H8.47544ZM8.47544 16.5164V16.5164H10.4754V16.5164H8.47544ZM13.2131 15.5164H9.47544V17.5164H13.2131V15.5164ZM14.2131 16.5164C14.2131 16.5164 14.2131 16.5164 14.2131 16.5164C14.2131 16.5164 14.2131 16.5164 14.2131 16.5164C14.2131 16.5164 14.2131 16.5164 14.2131 16.5164C14.2131 16.5164 14.2131 16.5164 14.2131 16.5164C14.2131 16.5164 14.2131 16.5164 14.2131 16.5164C14.2131 16.5164 14.2131 16.5164 14.2131 16.5164C14.2131 16.5164 14.2131 16.5164 14.2131 16.5164C14.2131 16.5164 14.2131 16.5164 14.2131 16.5164C14.2131 16.5164 14.2131 16.5164 14.2131 16.5164C14.2131 16.5164 14.2131 16.5164 14.2131 16.5164C14.2131 16.5164 14.2131 16.5164 14.2131 16.5164C14.2131 16.5164 14.2131 16.5164 14.2131 16.5164C14.2131 16.5164 14.2131 16.5164 14.2131 16.5164C14.2131 16.5164 14.2131 16.5164 14.2131 16.5164C14.2131 16.5164 14.2131 16.5164 14.2131 16.5164C14.2131 16.5164 14.2131 16.5164 14.2131 16.5164C14.2131 16.5164 14.2131 16.5164 14.2131 16.5164C14.2131 16.5164 14.2131 16.5164 14.2131 16.5164C14.2131 16.5164 14.2131 16.5164 14.2131 16.5164C14.2131 16.5164 14.2131 16.5164 14.2131 16.5164C14.2131 16.5164 14.2131 16.5164 14.2131 16.5164C14.2131 16.5164 14.2131 16.5164 14.2131 16.5164C14.2131 16.5164 14.2131 16.5164 14.2131 16.5164C14.2131 16.5164 14.2131 16.5164 14.2131 16.5164C14.2131 16.5164 14.2131 16.5164 14.2131 16.5164C14.2131 16.5164 14.2131 16.5164 14.2131 16.5164C14.2131 16.5164 14.2131 16.5164 14.2131 16.5164C14.2131 16.5164 14.2131 16.5164 14.2131 16.5164C14.2131 16.5164 14.2131 16.5164 14.2131 16.5164C14.2131 16.5164 14.2131 16.5164 14.2131 16.5164C14.2131 16.5164 14.2131 16.5164 14.2131 16.5164C14.2131 16.5164 14.2131 16.5164 14.2131 16.5164C14.2131 16.5164 14.2131 16.5164 14.2131 16.5164C14.2131 16.5164 14.2131 16.5164 14.2131 16.5164C14.2131 16.5164 14.2131 16.5164 14.2131 16.5164C14.2131 16.5164 14.2131 16.5164 14.2131 16.5164C14.2131 16.5164 14.2131 16.5164 14.2131 16.5164C14.2131 16.5164 14.2131 16.5164 14.2131 16.5164C14.2131 16.5164 14.2131 16.5164 14.2131 16.5164C14.2131 16.5164 14.2131 16.5164 14.2131 16.5164C14.2131 16.5164 14.2131 16.5164 14.2131 16.5164C14.2131 16.5164 14.2131 16.5164 14.2131 16.5164C14.2131 16.5164 14.2131 16.5164 14.2131 16.5164C14.2131 16.5164 14.2131 16.5164 14.2131 16.5164C14.2131 16.5164 14.2131 16.5164 14.2131 16.5164C14.2131 16.5164 14.2131 16.5164 14.2131 16.5164C14.2131 16.5164 14.2131 16.5164 14.2131 16.5164C14.2131 16.5164 14.2131 16.5164 14.2131 16.5164C14.2131 16.5164 14.2131 16.5164 14.2131 16.5164C14.2131 16.5164 14.2131 16.5164 14.2131 16.5164C14.2131 16.5164 14.2131 16.5164 14.2131 16.5164C14.2131 16.5164 14.2131 16.5164 14.2131 16.5164C14.2131 16.5164 14.2131 16.5164 14.2131 16.5164C14.2131 16.5164 14.2131 16.5164 14.2131 16.5164C14.2131 16.5164 14.2131 16.5164 14.2131 16.5164C14.2131 16.5164 14.2131 16.5164 14.2131 16.5164C14.2131 16.5164 14.2131 16.5164 14.2131 16.5164C14.2131 16.5164 14.2131 16.5164 14.2131 16.5164C14.2131 16.5164 14.2131 16.5164 14.2131 16.5164C14.2131 16.5164 14.2131 16.5164 14.2131 16.5164C14.2131 16.5164 14.2131 16.5164 14.2131 16.5164C14.2131 16.5164 14.2131 16.5164 14.2131 16.5164C14.2131 16.5164 14.2131 16.5164 14.2131 16.5164C14.2131 16.5164 14.2131 16.5164 14.2131 16.5164C14.2131 16.5164 14.2131 16.5164 14.2131 16.5164C14.2131 16.5164 14.2131 16.5164 14.2131 16.5164C14.2131 16.5164 14.2131 16.5164 14.2131 16.5164C14.2131 16.5164 14.2131 16.5164 14.2131 16.5164C14.2131 16.5164 14.2131 16.5164 14.2131 16.5164C14.2131 16.5164 14.2131 16.5164 14.2131 16.5164C14.2131 16.5164 14.2131 16.5164 14.2131 16.5164C14.2131 16.5164 14.2131 16.5164 14.2131 16.5164C14.2131 16.5164 14.2131 16.5164 14.2131 16.5164C14.2131 16.5164 14.2131 16.5164 14.2131 16.5164C14.2131 16.5164 14.2131 16.5164 14.2131 16.5164C14.2131 16.5164 14.2131 16.5164 14.2131 16.5164C14.2131 16.5164 14.2131 16.5164 14.2131 16.5164C14.2131 16.5164 14.2131 16.5164 14.2131 16.5164C14.2131 16.5164 14.2131 16.5164 14.2131 16.5164C14.2131 16.5164 14.2131 16.5164 14.2131 16.5164C14.2131 16.5164 14.2131 16.5164 14.2131 16.5164C14.2131 16.5164 14.2131 16.5164 14.2131 16.5164C14.2131 16.5164 14.2131 16.5164 14.2131 16.5164C14.2131 16.5164 14.2131 16.5164 14.2131 16.5164C14.2131 16.5164 14.2131 16.5164 14.2131 16.5164C14.2131 16.5164 14.2131 16.5164 14.2131 16.5164C14.2131 16.5164 14.2131 16.5164 14.2131 16.5164C14.2131 16.5164 14.2131 16.5164 14.2131 16.5164C14.2131 16.5164 14.2131 16.5164 14.2131 16.5164C14.2131 16.5164 14.2131 16.5164 14.2131 16.5164C14.2131 16.5164 14.2131 16.5164 14.2131 16.5164C14.2131 16.5164 14.2131 16.5164 14.2131 16.5164C14.2131 16.5164 14.2131 16.5164 14.2131 16.5164C14.2131 16.5164 14.2131 16.5164 14.2131 16.5164C14.2131 16.5164 14.2131 16.5164 14.2131 16.5164C14.2131 16.5164 14.2131 16.5164 14.2131 16.5164C14.2131 16.5164 14.2131 16.5164 14.2131 16.5164C14.2131 16.5164 14.2131 16.5164 14.2131 16.5164C14.2131 16.5164 14.2131 16.5164 14.2131 16.5164C14.2131 16.5164 14.2131 16.5164 14.2131 16.5164C14.2131 16.5164 14.2131 16.5164 14.2131 16.5164C14.2131 16.5164 14.2131 16.5164 14.2131 16.5164C14.2131 16.5164 14.2131 16.5164 14.2131 16.5164C14.2131 16.5164 14.2131 16.5164 14.2131 16.5164C14.2131 16.5164 14.2131 16.5164 14.2131 16.5164C14.2131 16.5164 14.2131 16.5164 14.2131 16.5164C14.2131 16.5164 14.2131 16.5164 14.2131 16.5164C14.2131 16.5164 14.2131 16.5164 14.2131 16.5164C14.2131 16.5164 14.2131 16.5164 14.2131 16.5164C14.2131 16.5164 14.2131 16.5164 14.2131 16.5164C14.2131 16.5164 14.2131 16.5164 14.2131 16.5164C14.2131 16.5164 14.2131 16.5164 14.2131 16.5164C14.2131 16.5164 14.2131 16.5164 14.2131 16.5164C14.2131 16.5164 14.2131 16.5164 14.2131 16.5164C14.2131 16.5164 14.2131 16.5164 14.2131 16.5164C14.2131 16.5164 14.2131 16.5164 14.2131 16.5164C14.2131 16.5164 14.2131 16.5164 14.2131 16.5164C14.2131 16.5164 14.2131 16.5164 14.2131 16.5164C14.2131 16.5164 14.2131 16.5164 14.2131 16.5164C14.2131 16.5164 14.2131 16.5164 14.2131 16.5164C14.2131 16.5164 14.2131 16.5164 14.2131 16.5164C14.2131 16.5164 14.2131 16.5164 14.2131 16.5164C14.2131 16.5164 14.2131 16.5164 14.2131 16.5164C14.2131 16.5164 14.2131 16.5164 14.2131 16.5164C14.2131 16.5164 14.2131 16.5164 14.2131 16.5164C14.2131 16.5164 14.2131 16.5164 14.2131 16.5164C14.2131 16.5164 14.2131 16.5164 14.2131 16.5164C14.2131 16.5164 14.2131 16.5164 14.2131 16.5164C14.2131 16.5164 14.2131 16.5164 14.2131 16.5164C14.2131 16.5164 14.2131 16.5164 14.2131 16.5164C14.2131 16.5164 14.2131 16.5164 14.2131 16.5164C14.2131 16.5164 14.2131 16.5164 14.2131 16.5164C14.2131 16.5164 14.2131 16.5164 14.2131 16.5164C14.2131 16.5164 14.2131 16.5164 14.2131 16.5164C14.2131 16.5164 14.2131 16.5164 14.2131 16.5164C14.2131 16.5164 14.2131 16.5164 14.2131 16.5164C14.2131 16.5164 14.2131 16.5164 14.2131 16.5164C14.2131 16.5164 14.2131 16.5164 14.2131 16.5164C14.2131 16.5164 14.2131 16.5164 14.2131 16.5164C14.2131 16.5164 14.2131 16.5164 14.2131 16.5164C14.2131 16.5164 14.2131 16.5164 14.2131 16.5164C14.2131 16.5164 14.2131 16.5164 14.2131 16.5164C14.2131 16.5164 14.2131 16.5164 14.2131 16.5164C14.2131 16.5164 14.2131 16.5164 14.2131 16.5164C14.2131 16.5164 14.2131 16.5164 14.2131 16.5164C14.2131 16.5164 14.2131 16.5164 14.2131 16.5164C14.2131 16.5164 14.2131 16.5164 14.2131 16.5164C14.2131 16.5164 14.2131 16.5164 14.2131 16.5164C14.2131 16.5164 14.2131 16.5164 14.2131 16.5164C14.2131 16.5164 14.2131 16.5164 14.2131 16.5164C14.2131 16.5164 14.2131 16.5164 14.2131 16.5164C14.2131 16.5164 14.2131 16.5164 14.2131 16.5164C14.2131 16.5164 14.2131 16.5164 14.2131 16.5164C14.2131 16.5164 14.2131 16.5164 14.2131 16.5164C14.2131 16.5164 14.2131 16.5164 14.2131 16.5164C14.2131 16.5164 14.2131 16.5164 14.2131 16.5164C14.2131 16.5164 14.2131 16.5164 14.2131 16.5164C14.2131 16.5164 14.2131 16.5164 14.2131 16.5164C14.2131 16.5164 14.2131 16.5164 14.2131 16.5164C14.2131 16.5164 14.2131 16.5164 14.2131 16.5164C14.2131 16.5164 14.2131 16.5164 14.2131 16.5164C14.2131 16.5164 14.2131 16.5164 14.2131 16.5164C14.2131 16.5164 14.2131 16.5164 14.2131 16.5164C14.2131 16.5164 14.2131 16.5164 14.2131 16.5164C14.2131 16.5164 14.2131 16.5164 14.2131 16.5164C14.2131 16.5164 14.2131 16.5164 14.2131 16.5164C14.2131 16.5164 14.2131 16.5164 14.2131 16.5164C14.2131 16.5164 14.2131 16.5164 14.2131 16.5164C14.2131 16.5164 14.2131 16.5164 14.2131 16.5164C14.2131 16.5164 14.2131 16.5164 14.2131 16.5164C14.2131 16.5164 14.2131 16.5164 14.2131 16.5164C14.2131 16.5164 14.2131 16.5164 14.2131 16.5164C14.2131 16.5164 14.2131 16.5164 14.2131 16.5164C14.2131 16.5164 14.2131 16.5164 14.2131 16.5164C14.2131 16.5164 14.2131 16.5164 14.2131 16.5164C14.2131 16.5164 14.2131 16.5164 14.2131 16.5164C14.2131 16.5164 14.2131 16.5164 14.2131 16.5164C14.2131 16.5164 14.2131 16.5164 14.2131 16.5164C14.2131 16.5164 14.2131 16.5164 14.2131 16.5164C14.2131 16.5164 14.2131 16.5164 14.2131 16.5164C14.2131 16.5164 14.2131 16.5164 14.2131 16.5164C14.2131 16.5164 14.2131 16.5164 14.2131 16.5164C14.2131 16.5164 14.2131 16.5164 14.2131 16.5164C14.2131 16.5164 14.2131 16.5164 14.2131 16.5164C14.2131 16.5164 14.2131 16.5164 14.2131 16.5164C14.2131 16.5164 14.2131 16.5164 14.2131 16.5164C14.2131 16.5164 14.2131 16.5164 14.2131 16.5164C14.2131 16.5164 14.2131 16.5164 14.2131 16.5164C14.2131 16.5164 14.2131 16.5164 14.2131 16.5164C14.2131 16.5164 14.2131 16.5164 14.2131 16.5164C14.2131 16.5164 14.2131 16.5164 14.2131 16.5164C14.2131 16.5164 14.2131 16.5164 14.2131 16.5164C14.2131 16.5164 14.2131 16.5164 14.2131 16.5164C14.2131 16.5164 14.2131 16.5164 14.2131 16.5164C14.2131 16.5164 14.2131 16.5164 14.2131 16.5164C14.2131 16.5164 14.2131 16.5164 14.2131 16.5164C14.2131 16.5164 14.2131 16.5164 14.2131 16.5164C14.2131 16.5164 14.2131 16.5164 14.2131 16.5164C14.2131 16.5164 14.2131 16.5164 14.2131 16.5164C14.2131 16.5164 14.2131 16.5164 14.2131 16.5164C14.2131 16.5164 14.2131 16.5164 14.2131 16.5164C14.2131 16.5164 14.2131 16.5164 14.2131 16.5164C14.2131 16.5164 14.2131 16.5164 14.2131 16.5164C14.2131 16.5164 14.2131 16.5164 14.2131 16.5164C14.2131 16.5164 14.2131 16.5164 14.2131 16.5164C14.2131 16.5164 14.2131 16.5164 14.2131 16.5164C14.2131 16.5164 14.2131 16.5164 14.2131 16.5164C14.2131 16.5164 14.2131 16.5164 14.2131 16.5164C14.2131 16.5164 14.2131 16.5164 14.2131 16.5164C14.2131 16.5164 14.2131 16.5164 14.2131 16.5164C14.2131 16.5164 14.2131 16.5164 14.2131 16.5164C14.2131 16.5164 14.2131 16.5164 14.2131 16.5164C14.2131 16.5164 14.2131 16.5164 14.2131 16.5164C14.2131 16.5164 14.2131 16.5164 14.2131 16.5164C14.2131 16.5164 14.2131 16.5164 14.2131 16.5164C14.2131 16.5164 14.2131 16.5164 14.2131 16.5164C14.2131 16.5164 14.2131 16.5164 14.2131 16.5164C14.2131 16.5164 14.2131 16.5164 14.2131 16.5164C14.2131 16.5164 14.2131 16.5164 14.2131 16.5164C14.2131 16.5164 14.2131 16.5164 14.2131 16.5164C14.2131 16.5164 14.2131 16.5164 14.2131 16.5164C14.2131 16.5164 14.2131 16.5164 14.2131 16.5164C14.2131 16.5164 14.2131 16.5164 14.2131 16.5164C14.2131 16.5164 14.2131 16.5164 14.2131 16.5164C14.2131 16.5164 14.2131 16.5164 14.2131 16.5164C14.2131 16.5164 14.2131 16.5164 14.2131 16.5164C14.2131 16.5164 14.2131 16.5164 14.2131 16.5164C14.2131 16.5164 14.2131 16.5164 14.2131 16.5164C14.2131 16.5164 14.2131 16.5164 14.2131 16.5164C14.2131 16.5164 14.2131 16.5164 14.2131 16.5164C14.2131 16.5164 14.2131 16.5164 14.2131 16.5164C14.2131 16.5164 14.2131 16.5164 14.2131 16.5164C14.2131 16.5164 14.2131 16.5164 14.2131 16.5164C14.2131 16.5164 14.2131 16.5164 14.2131 16.5164C14.2131 16.5164 14.2131 16.5164 14.2131 16.5164C14.2131 16.5164 14.2131 16.5164 14.2131 16.5164C14.2131 16.5164 14.2131 16.5164 14.2131 16.5164C14.2131 16.5164 14.2131 16.5164 14.2131 16.5164C14.2131 16.5164 14.2131 16.5164 14.2131 16.5164C14.2131 16.5164 14.2131 16.5164 14.2131 16.5164C14.2131 16.5164 14.2131 16.5164 14.2131 16.5164C14.2131 16.5164 14.2131 16.5164 14.2131 16.5164C14.2131 16.5164 14.2131 16.5164 14.2131 16.5164C14.2131 16.5164 14.2131 16.5164 14.2131 16.5164C14.2131 16.5164 14.2131 16.5164 14.2131 16.5164C14.2131 16.5164 14.2131 16.5164 14.2131 16.5164C14.2131 16.5164 14.2131 16.5164 14.2131 16.5164C14.2131 16.5164 14.2131 16.5164 14.2131 16.5164C14.2131 16.5164 14.2131 16.5164 14.2131 16.5164C14.2131 16.5164 14.2131 16.5164 14.2131 16.5164C14.2131 16.5164 14.2131 16.5164 14.2131 16.5164C14.2131 16.5164 14.2131 16.5164 14.2131 16.5164C14.2131 16.5164 14.2131 16.5164 14.2131 16.5164C14.2131 16.5164 14.2131 16.5164 14.2131 16.5164C14.2131 16.5164 14.2131 16.5164 14.2131 16.5164C14.2131 16.5164 14.2131 16.5164 14.2131 16.5164C14.2131 16.5164 14.2131 16.5164 14.2131 16.5164C14.2131 16.5164 14.2131 16.5164 14.2131 16.5164C14.2131 16.5164 14.2131 16.5164 14.2131 16.5164C14.2131 16.5164 14.2131 16.5164 14.2131 16.5164C14.2131 16.5164 14.2131 16.5164 14.2131 16.5164C14.2131 16.5164 14.2131 16.5164 14.2131 16.5164C14.2131 16.5164 14.2131 16.5164 14.2131 16.5164C14.2131 16.5164 14.2131 16.5164 14.2131 16.5164C14.2131 16.5164 14.2131 16.5164 14.2131 16.5164C14.2131 16.5164 14.2131 16.5164 14.2131 16.5164C14.2131 16.5164 14.2131 16.5164 14.2131 16.5164C14.2131 16.5164 14.2131 16.5164 14.2131 16.5164C14.2131 16.5164 14.2131 16.5164 14.2131 16.5164C14.2131 16.5164 14.2131 16.5164 14.2131 16.5164C14.2131 16.5164 14.2131 16.5164 14.2131 16.5164C14.2131 16.5164 14.2131 16.5164 14.2131 16.5164C14.2131 16.5164 14.2131 16.5164 14.2131 16.5164C14.2131 16.5164 14.2131 16.5164 14.2131 16.5164C14.2131 16.5164 14.2131 16.5164 14.2131 16.5164C14.2131 16.5164 14.2131 16.5164 14.2131 16.5164C14.2131 16.5164 14.2131 16.5164 14.2131 16.5164C14.2131 16.5164 14.2131 16.5164 14.2131 16.5164C14.2131 16.5164 14.2131 16.5164 14.2131 16.5164C14.2131 16.5164 14.2131 16.5164 14.2131 16.5164C14.2131 16.5164 14.2131 16.5164 14.2131 16.5164C14.2131 16.5164 14.2131 16.5164 14.2131 16.5164C14.2131 16.5164 14.2131 16.5164 14.2131 16.5164C14.2131 16.5164 14.2131 16.5164 14.2131 16.5164C14.2131 16.5164 14.2131 16.5164 14.2131 16.5164C14.2131 16.5164 14.2131 16.5164 14.2131 16.5164C14.2131 16.5164 14.2131 16.5164 14.2131 16.5164C14.2131 16.5164 14.2131 16.5164 14.2131 16.5164C14.2131 16.5164 14.2131 16.5164 14.2131 16.5164C14.2131 16.5164 14.2131 16.5164 14.2131 16.5164C14.2131 16.5164 14.2131 16.5164 14.2131 16.5164C14.2131 16.5164 14.2131 16.5164 14.2131 16.5164C14.2131 16.5164 14.2131 16.5164 14.2131 16.5164C14.2131 16.5164 14.2131 16.5164 14.2131 16.5164C14.2131 16.5164 14.2131 16.5164 14.2131 16.5164C14.2131 16.5164 14.2131 16.5164 14.2131 16.5164C14.2131 16.5164 14.2131 16.5164 14.2131 16.5164C14.2131 16.5164 14.2131 16.5164 14.2131 16.5164C14.2131 16.5164 14.2131 16.5164 14.2131 16.5164C14.2131 16.5164 14.2131 16.5164 14.2131 16.5164C14.2131 16.5164 14.2131 16.5164 14.2131 16.5164C14.2131 16.5164 14.2131 16.5164 14.2131 16.5164C14.2131 16.5164 14.2131 16.5164 14.2131 16.5164C14.2131 16.5164 14.2131 16.5164 14.2131 16.5164C14.2131 16.5164 14.2131 16.5164 14.2131 16.5164C14.2131 16.5164 14.2131 16.5164 14.2131 16.5164C14.2131 16.5164 14.2131 16.5164 14.2131 16.5164C14.2131 16.5164 14.2131 16.5164 14.2131 16.5164C14.2131 16.5164 14.2131 16.5164 14.2131 16.5164C14.2131 16.5164 14.2131 16.5164 14.2131 16.5164C14.2131 16.5164 14.2131 16.5164 14.2131 16.5164C14.2131 16.5164 14.2131 16.5164 14.2131 16.5164C14.2131 16.5164 14.2131 16.5164 14.2131 16.5164C14.2131 16.5164 14.2131 16.5164 14.2131 16.5164C14.2131 16.5164 14.2131 16.5164 14.2131 16.5164C14.2131 16.5164 14.2131 16.5164 14.2131 16.5164C14.2131 16.5164 14.2131 16.5164 14.2131 16.5164C14.2131 16.5164 14.2131 16.5164 14.2131 16.5164C14.2131 16.5164 14.2131 16.5164 14.2131 16.5164C14.2131 16.5164 14.2131 16.5164 14.2131 16.5164C14.2131 16.5164 14.2131 16.5164 14.2131 16.5164C14.2131 16.5164 14.2131 16.5164 14.2131 16.5164C14.2131 16.5164 14.2131 16.5164 14.2131 16.5164C14.2131 16.5164 14.2131 16.5164 14.2131 16.5164C14.2131 16.5164 14.2131 16.5164 14.2131 16.5164C14.2131 16.5164 14.2131 16.5164 14.2131 16.5164C14.2131 16.5164 14.2131 16.5164 14.2131 16.5164C14.2131 16.5164 14.2131 16.5164 14.2131 16.5164C14.2131 16.5164 14.2131 16.5164 14.2131 16.5164C14.2131 16.5164 14.2131 16.5164 14.2131 16.5164C14.2131 16.5164 14.2131 16.5164 14.2131 16.5164C14.2131 16.5164 14.2131 16.5164 14.2131 16.5164C14.2131 16.5164 14.2131 16.5164 14.2131 16.5164C14.2131 16.5164 14.2131 16.5164 14.2131 16.5164C14.2131 16.5164 14.2131 16.5164 14.2131 16.5164C14.2131 16.5164 14.2131 16.5164 14.2131 16.5164C14.2131 16.5164 14.2131 16.5164 14.2131 16.5164C14.2131 16.5164 14.2131 16.5164 14.2131 16.5164C14.2131 16.5164 14.2131 16.5164 14.2131 16.5164C14.2131 16.5164 14.2131 16.5164 14.2131 16.5164C14.2131 16.5164 14.2131 16.5164 14.2131 16.5164C14.2131 16.5164 14.2131 16.5164 14.2131 16.5164C14.2131 16.5164 14.2131 16.5164 14.2131 16.5164C14.2131 16.5164 14.2131 16.5164 14.2131 16.5164C14.2131 16.5164 14.2131 16.5164 14.2131 16.5164C14.2131 16.5164 14.2131 16.5164 14.2131 16.5164C14.2131 16.5164 14.2131 16.5164 14.2131 16.5164C14.2131 16.5164 14.2131 16.5164 14.2131 16.5164C14.2131 16.5164 14.2131 16.5164 14.2131 16.5164C14.2131 16.5164 14.2131 16.5164 14.2131 16.5164C14.2131 16.5164 14.2131 16.5164 14.2131 16.5164C14.2131 16.5164 14.2131 16.5164 14.2131 16.5164C14.2131 16.5164 14.2131 16.5164 14.2131 16.5164C14.2131 16.5164 14.2131 16.5164 14.2131 16.5164C14.2131 16.5164 14.2131 16.5164 14.2131 16.5164C14.2131 16.5164 14.2131 16.5164 14.2131 16.5164C14.2131 16.5164 14.2131 16.5164 14.2131 16.5164C14.2131 16.5164 14.2131 16.5164 14.2131 16.5164C14.2131 16.5164 14.2131 16.5164 14.2131 16.5164C14.2131 16.5164 14.2131 16.5164 14.2131 16.5164C14.2131 16.5164 14.2131 16.5164 14.2131 16.5164C14.2131 16.5164 14.2131 16.5164 14.2131 16.5164C14.2131 16.5164 14.2131 16.5164 14.2131 16.5164C14.2131 16.5164 14.2131 16.5164 14.2131 16.5164C14.2131 16.5164 14.2131 16.5164 14.2131 16.5164C14.2131 16.5164 14.2131 16.5164 14.2131 16.5164C14.2131 16.5164 14.2131 16.5164 14.2131 16.5164C14.2131 16.5164 14.2131 16.5164 14.2131 16.5164C14.2131 16.5164 14.2131 16.5164 14.2131 16.5164C14.2131 16.5164 14.2131 16.5164 14.2131 16.5164C14.2131 16.5164 14.2131 16.5164 14.2131 16.5164C14.2131 16.5164 14.2131 16.5164 14.2131 16.5164C14.2131 16.5164 14.2131 16.5164 14.2131 16.5164C14.2131 16.5164 14.2131 16.5164 14.2131 16.5164C14.2131 16.5164 14.2131 16.5164 14.2131 16.5164C14.2131 16.5164 14.2131 16.5164 14.2131 16.5164C14.2131 16.5164 14.2131 16.5164 14.2131 16.5164C14.2131 16.5164 14.2131 16.5164 14.2131 16.5164C14.2131 16.5164 14.2131 16.5164 14.2131 16.5164C14.2131 16.5164 14.2131 16.5164 14.2131 16.5164C14.2131 16.5164 14.2131 16.5164 14.2131 16.5164C14.2131 16.5164 14.2131 16.5164 14.2131 16.5164C14.2131 16.5164 14.2131 16.5164 14.2131 16.5164C14.2131 16.5164 14.2131 16.5164 14.2131 16.5164C14.2131 16.5164 14.2131 16.5164 14.2131 16.5164C14.2131 16.5164 14.2131 16.5164 14.2131 16.5164C14.2131 16.5164 14.2131 16.5164 14.2131 16.5164C14.2131 16.5164 14.2131 16.5164 14.2131 16.5164C14.2131 16.5164 14.2131 16.5164 14.2131 16.5164C14.2131 16.5164 14.2131 16.5164 14.2131 16.5164C14.2131 16.5164 14.2131 16.5164 14.2131 16.5164C14.2131 16.5164 14.2131 16.5164 14.2131 16.5164C14.2131 16.5164 14.2131 16.5164 14.2131 16.5164C14.2131 16.5164 14.2131 16.5164 14.2131 16.5164C14.2131 16.5164 14.2131 16.5164 14.2131 16.5164C14.2131 16.5164 14.2131 16.5164 14.2131 16.5164C14.2131 16.5164 14.2131 16.5164 14.2131 16.5164C14.2131 16.5164 14.2131 16.5164 14.2131 16.5164C14.2131 16.5164 14.2131 16.5164 14.2131 16.5164C14.2131 16.5164 14.2131 16.5164 14.2131 16.5164C14.2131 16.5164 14.2131 16.5164 14.2131 16.5164C14.2131 16.5164 14.2131 16.5164 14.2131 16.5164C14.2131 16.5164 14.2131 16.5164 14.2131 16.5164C14.2131 16.5164 14.2131 16.5164 14.2131 16.5164C14.2131 16.5164 14.2131 16.5164 14.2131 16.5164C14.2131 16.5164 14.2131 16.5164 14.2131 16.5164C14.2131 16.5164 14.2131 16.5164 14.2131 16.5164C14.2131 16.5164 14.2131 16.5164 14.2131 16.5164C14.2131 16.5164 14.2131 16.5164 14.2131 16.5164C14.2131 16.5164 14.2131 16.5164 14.2131 16.5164C14.2131 16.5164 14.2131 16.5164 14.2131 16.5164C14.2131 16.5164 14.2131 16.5164 14.2131 16.5164C14.2131 16.5164 14.2131 16.5164 14.2131 16.5164C14.2131 16.5164 14.2131 16.5164 14.2131 16.5164C14.2131 16.5164 14.2131 16.5164 14.2131 16.5164C14.2131 16.5164 14.2131 16.5164 14.2131 16.5164C14.2131 16.5164 14.2131 16.5164 14.2131 16.5164C14.2131 16.5164 14.2131 16.5164 14.2131 16.5164C14.2131 16.5164 14.2131 16.5164 14.2131 16.5164C14.2131 16.5164 14.2131 16.5164 14.2131 16.5164C14.2131 16.5164 14.2131 16.5164 14.2131 16.5164C14.2131 16.5164 14.2131 16.5164 14.2131 16.5164C14.2131 16.5164 14.2131 16.5164 14.2131 16.5164C14.2131 16.5164 14.2131 16.5164 14.2131 16.5164C14.2131 16.5164 14.2131 16.5164 14.2131 16.5164C14.2131 16.5164 14.2131 16.5164 14.2131 16.5164C14.2131 16.5164 14.2131 16.5164 14.2131 16.5164C14.2131 16.5164 14.2131 16.5164 14.2131 16.5164C14.2131 16.5164 14.2131 16.5164 14.2131 16.5164C14.2131 16.5164 14.2131 16.5164 14.2131 16.5164C14.2131 16.5164 14.2131 16.5164 14.2131 16.5164C14.2131 16.5164 14.2131 16.5164 14.2131 16.5164C14.2131 16.5164 14.2131 16.5164 14.2131 16.5164C14.2131 16.5164 14.2131 16.5164 14.2131 16.5164C14.2131 16.5164 14.2131 16.5164 14.2131 16.5164C14.2131 16.5164 14.2131 16.5164 14.2131 16.5164C14.2131 16.5164 14.2131 16.5164 14.2131 16.5164C14.2131 16.5164 14.2131 16.5164 14.2131 16.5164C14.2131 16.5164 14.2131 16.5164 14.2131 16.5164C14.2131 16.5164 14.2131 16.5164 14.2131 16.5164C14.2131 16.5164 14.2131 16.5164 14.2131 16.5164C14.2131 16.5164 14.2131 16.5164 14.2131 16.5164C14.2131 16.5164 14.2131 16.5164 14.2131 16.5164C14.2131 16.5164 14.2131 16.5164 14.2131 16.5164C14.2131 16.5164 14.2131 16.5164 14.2131 16.5164C14.2131 16.5164 14.2131 16.5164 14.2131 16.5164C14.2131 16.5164 14.2131 16.5164 14.2131 16.5164C14.2131 16.5164 14.2131 16.5164 14.2131 16.5164C14.2131 16.5164 14.2131 16.5164 14.2131 16.5164C14.2131 16.5164 14.2131 16.5164 14.2131 16.5164C14.2131 16.5164 14.2131 16.5164 14.2131 16.5164C14.2131 16.5164 14.2131 16.5164 14.2131 16.5164C14.2131 16.5164 14.2131 16.5164 14.2131 16.5164C14.2131 16.5164 14.2131 16.5164 14.2131 16.5164C14.2131 16.5164 14.2131 16.5164 14.2131 16.5164C14.2131 16.5164 14.2131 16.5164 14.2131 16.5164C14.2131 16.5164 14.2131 16.5164 14.2131 16.5164C14.2131 16.5164 14.2131 16.5164 14.2131 16.5164C14.2131 16.5164 14.2131 16.5164 14.2131 16.5164C14.2131 16.5164 14.2131 16.5164 14.2131 16.5164C14.2131 16.5164 14.2131 16.5164 14.2131 16.5164C14.2131 16.5164 14.2131 16.5164 14.2131 16.5164C14.2131 16.5164 14.2131 16.5164 14.2131 16.5164C14.2131 16.5164 14.2131 16.5164 14.2131 16.5164C14.2131 16.5164 14.2131 16.5164 14.2131 16.5164C14.2131 16.5164 14.2131 16.5164 14.2131 16.5164C14.2131 16.5164 14.2131 16.5164 14.2131 16.5164C14.2131 16.5164 14.2131 16.5164 14.2131 16.5164C14.2131 16.5164 14.2131 16.5164 14.2131 16.5164C14.2131 16.5164 14.2131 16.5164 14.2131 16.5164C14.2131 16.5164 14.2131 16.5164 14.2131 16.5164C14.2131 16.5164 14.2131 16.5164 14.2131 16.5164C14.2131 16.5164 14.2131 16.5164 14.2131 16.5164C14.2131 16.5164 14.2131 16.5164 14.2131 16.5164C14.2131 16.5164 14.2131 16.5164 14.2131 16.5164C14.2131 16.5164 14.2131 16.5164 14.2131 16.5164C14.2131 16.5164 14.2131 16.5164 14.2131 16.5164C14.2131 16.5164 14.2131 16.5164 14.2131 16.5164C14.2131 16.5164 14.2131 16.5164 14.2131 16.5164C14.2131 16.5164 14.2131 16.5164 14.2131 16.5164C14.2131 16.5164 14.2131 16.5164 14.2131 16.5164C14.2131 16.5164 14.2131 16.5164 14.2131 16.5164C14.2131 16.5164 14.2131 16.5164 14.2131 16.5164C14.2131 16.5164 14.2131 16.5164 14.2131 16.5164C14.2131 16.5164 14.2131 16.5164 14.2131 16.5164C14.2131 16.5164 14.2131 16.5164 14.2131 16.5164C14.2131 16.5164 14.2131 16.5164 14.2131 16.5164C14.2131 16.5164 14.2131 16.5164 14.2131 16.5164C14.2131 16.5164 14.2131 16.5164 14.2131 16.5164C14.2131 16.5164 14.2131 16.5164 14.2131 16.5164C14.2131 16.5164 14.2131 16.5164 14.2131 16.5164C14.2131 16.5164 14.2131 16.5164 14.2131 16.5164C14.2131 16.5164 14.2131 16.5164 14.2131 16.5164C14.2131 16.5164 14.2131 16.5164 14.2131 16.5164C14.2131 16.5164 14.2131 16.5164 14.2131 16.5164C14.2131 16.5164 14.2131 16.5164 14.2131 16.5164C14.2131 16.5164 14.2131 16.5164 14.2131 16.5164C14.2131 16.5164 14.2131 16.5164 14.2131 16.5164C14.2131 16.5164 14.2131 16.5164 14.2131 16.5164C14.2131 16.5164 14.2131 16.5164 14.2131 16.5164C14.2131 16.5164 14.2131 16.5164 14.2131 16.5164C14.2131 16.5164 14.2131 16.5164 14.2131 16.5164C14.2131 16.5164 14.2131 16.5164 14.2131 16.5164C14.2131 16.5164 14.2131 16.5164 14.2131 16.5164C14.2131 16.5164 14.2131 16.5164 14.2131 16.5164C14.2131 16.5164 14.2131 16.5164 14.2131 16.5164C14.2131 16.5164 14.2131 16.5164 14.2131 16.5164C14.2131 16.5164 14.2131 16.5164 14.2131 16.5164C14.2131 16.5164 14.2131 16.5164 14.2131 16.5164C14.2131 16.5164 14.2131 16.5164 14.2131 16.5164C14.2131 16.5164 14.2131 16.5164 14.2131 16.5164C14.2131 16.5164 14.2131 16.5164 14.2131 16.5164H12.2131C12.2131 16.5164 12.2131 16.5164 12.2131 16.5164C12.2131 16.5164 12.2131 16.5164 12.2131 16.5164C12.2131 16.5164 12.2131 16.5164 12.2131 16.5164C12.2131 16.5164 12.2131 16.5164 12.2131 16.5164C12.2131 16.5164 12.2131 16.5164 12.2131 16.5164C12.2131 16.5164 12.2131 16.5164 12.2131 16.5164C12.2131 16.5164 12.2131 16.5164 12.2131 16.5164C12.2131 16.5164 12.2131 16.5164 12.2131 16.5164C12.2131 16.5164 12.2131 16.5164 12.2131 16.5164C12.2131 16.5164 12.2131 16.5164 12.2131 16.5164C12.2131 16.5164 12.2131 16.5164 12.2131 16.5164C12.2131 16.5164 12.2131 16.5164 12.2131 16.5164C12.2131 16.5164 12.2131 16.5164 12.2131 16.5164C12.2131 16.5164 12.2131 16.5164 12.2131 16.5164C12.2131 16.5164 12.2131 16.5164 12.2131 16.5164C12.2131 16.5164 12.2131 16.5164 12.2131 16.5164C12.2131 16.5164 12.2131 16.5164 12.2131 16.5164C12.2131 16.5164 12.2131 16.5164 12.2131 16.5164C12.2131 16.5164 12.2131 16.5164 12.2131 16.5164C12.2131 16.5164 12.2131 16.5164 12.2131 16.5164C12.2131 16.5164 12.2131 16.5164 12.2131 16.5164C12.2131 16.5164 12.2131 16.5164 12.2131 16.5164C12.2131 16.5164 12.2131 16.5164 12.2131 16.5164C12.2131 16.5164 12.2131 16.5164 12.2131 16.5164C12.2131 16.5164 12.2131 16.5164 12.2131 16.5164C12.2131 16.5164 12.2131 16.5164 12.2131 16.5164C12.2131 16.5164 12.2131 16.5164 12.2131 16.5164C12.2131 16.5164 12.2131 16.5164 12.2131 16.5164C12.2131 16.5164 12.2131 16.5164 12.2131 16.5164C12.2131 16.5164 12.2131 16.5164 12.2131 16.5164C12.2131 16.5164 12.2131 16.5164 12.2131 16.5164C12.2131 16.5164 12.2131 16.5164 12.2131 16.5164C12.2131 16.5164 12.2131 16.5164 12.2131 16.5164C12.2131 16.5164 12.2131 16.5164 12.2131 16.5164C12.2131 16.5164 12.2131 16.5164 12.2131 16.5164C12.2131 16.5164 12.2131 16.5164 12.2131 16.5164C12.2131 16.5164 12.2131 16.5164 12.2131 16.5164C12.2131 16.5164 12.2131 16.5164 12.2131 16.5164C12.2131 16.5164 12.2131 16.5164 12.2131 16.5164C12.2131 16.5164 12.2131 16.5164 12.2131 16.5164C12.2131 16.5164 12.2131 16.5164 12.2131 16.5164C12.2131 16.5164 12.2131 16.5164 12.2131 16.5164C12.2131 16.5164 12.2131 16.5164 12.2131 16.5164C12.2131 16.5164 12.2131 16.5164 12.2131 16.5164C12.2131 16.5164 12.2131 16.5164 12.2131 16.5164C12.2131 16.5164 12.2131 16.5164 12.2131 16.5164C12.2131 16.5164 12.2131 16.5164 12.2131 16.5164C12.2131 16.5164 12.2131 16.5164 12.2131 16.5164C12.2131 16.5164 12.2131 16.5164 12.2131 16.5164C12.2131 16.5164 12.2131 16.5164 12.2131 16.5164C12.2131 16.5164 12.2131 16.5164 12.2131 16.5164C12.2131 16.5164 12.2131 16.5164 12.2131 16.5164C12.2131 16.5164 12.2131 16.5164 12.2131 16.5164C12.2131 16.5164 12.2131 16.5164 12.2131 16.5164C12.2131 16.5164 12.2131 16.5164 12.2131 16.5164C12.2131 16.5164 12.2131 16.5164 12.2131 16.5164C12.2131 16.5164 12.2131 16.5164 12.2131 16.5164C12.2131 16.5164 12.2131 16.5164 12.2131 16.5164C12.2131 16.5164 12.2131 16.5164 12.2131 16.5164C12.2131 16.5164 12.2131 16.5164 12.2131 16.5164C12.2131 16.5164 12.2131 16.5164 12.2131 16.5164C12.2131 16.5164 12.2131 16.5164 12.2131 16.5164C12.2131 16.5164 12.2131 16.5164 12.2131 16.5164C12.2131 16.5164 12.2131 16.5164 12.2131 16.5164C12.2131 16.5164 12.2131 16.5164 12.2131 16.5164C12.2131 16.5164 12.2131 16.5164 12.2131 16.5164C12.2131 16.5164 12.2131 16.5164 12.2131 16.5164C12.2131 16.5164 12.2131 16.5164 12.2131 16.5164C12.2131 16.5164 12.2131 16.5164 12.2131 16.5164C12.2131 16.5164 12.2131 16.5164 12.2131 16.5164C12.2131 16.5164 12.2131 16.5164 12.2131 16.5164C12.2131 16.5164 12.2131 16.5164 12.2131 16.5164C12.2131 16.5164 12.2131 16.5164 12.2131 16.5164C12.2131 16.5164 12.2131 16.5164 12.2131 16.5164C12.2131 16.5164 12.2131 16.5164 12.2131 16.5164C12.2131 16.5164 12.2131 16.5164 12.2131 16.5164C12.2131 16.5164 12.2131 16.5164 12.2131 16.5164C12.2131 16.5164 12.2131 16.5164 12.2131 16.5164C12.2131 16.5164 12.2131 16.5164 12.2131 16.5164C12.2131 16.5164 12.2131 16.5164 12.2131 16.5164C12.2131 16.5164 12.2131 16.5164 12.2131 16.5164C12.2131 16.5164 12.2131 16.5164 12.2131 16.5164C12.2131 16.5164 12.2131 16.5164 12.2131 16.5164C12.2131 16.5164 12.2131 16.5164 12.2131 16.5164C12.2131 16.5164 12.2131 16.5164 12.2131 16.5164C12.2131 16.5164 12.2131 16.5164 12.2131 16.5164C12.2131 16.5164 12.2131 16.5164 12.2131 16.5164C12.2131 16.5164 12.2131 16.5164 12.2131 16.5164C12.2131 16.5164 12.2131 16.5164 12.2131 16.5164C12.2131 16.5164 12.2131 16.5164 12.2131 16.5164C12.2131 16.5164 12.2131 16.5164 12.2131 16.5164C12.2131 16.5164 12.2131 16.5164 12.2131 16.5164C12.2131 16.5164 12.2131 16.5164 12.2131 16.5164C12.2131 16.5164 12.2131 16.5164 12.2131 16.5164C12.2131 16.5164 12.2131 16.5164 12.2131 16.5164C12.2131 16.5164 12.2131 16.5164 12.2131 16.5164C12.2131 16.5164 12.2131 16.5164 12.2131 16.5164C12.2131 16.5164 12.2131 16.5164 12.2131 16.5164C12.2131 16.5164 12.2131 16.5164 12.2131 16.5164C12.2131 16.5164 12.2131 16.5164 12.2131 16.5164C12.2131 16.5164 12.2131 16.5164 12.2131 16.5164C12.2131 16.5164 12.2131 16.5164 12.2131 16.5164C12.2131 16.5164 12.2131 16.5164 12.2131 16.5164C12.2131 16.5164 12.2131 16.5164 12.2131 16.5164C12.2131 16.5164 12.2131 16.5164 12.2131 16.5164C12.2131 16.5164 12.2131 16.5164 12.2131 16.5164C12.2131 16.5164 12.2131 16.5164 12.2131 16.5164C12.2131 16.5164 12.2131 16.5164 12.2131 16.5164C12.2131 16.5164 12.2131 16.5164 12.2131 16.5164C12.2131 16.5164 12.2131 16.5164 12.2131 16.5164C12.2131 16.5164 12.2131 16.5164 12.2131 16.5164C12.2131 16.5164 12.2131 16.5164 12.2131 16.5164C12.2131 16.5164 12.2131 16.5164 12.2131 16.5164C12.2131 16.5164 12.2131 16.5164 12.2131 16.5164C12.2131 16.5164 12.2131 16.5164 12.2131 16.5164C12.2131 16.5164 12.2131 16.5164 12.2131 16.5164C12.2131 16.5164 12.2131 16.5164 12.2131 16.5164C12.2131 16.5164 12.2131 16.5164 12.2131 16.5164C12.2131 16.5164 12.2131 16.5164 12.2131 16.5164C12.2131 16.5164 12.2131 16.5164 12.2131 16.5164C12.2131 16.5164 12.2131 16.5164 12.2131 16.5164C12.2131 16.5164 12.2131 16.5164 12.2131 16.5164C12.2131 16.5164 12.2131 16.5164 12.2131 16.5164C12.2131 16.5164 12.2131 16.5164 12.2131 16.5164C12.2131 16.5164 12.2131 16.5164 12.2131 16.5164C12.2131 16.5164 12.2131 16.5164 12.2131 16.5164C12.2131 16.5164 12.2131 16.5164 12.2131 16.5164C12.2131 16.5164 12.2131 16.5164 12.2131 16.5164C12.2131 16.5164 12.2131 16.5164 12.2131 16.5164C12.2131 16.5164 12.2131 16.5164 12.2131 16.5164C12.2131 16.5164 12.2131 16.5164 12.2131 16.5164C12.2131 16.5164 12.2131 16.5164 12.2131 16.5164C12.2131 16.5164 12.2131 16.5164 12.2131 16.5164C12.2131 16.5164 12.2131 16.5164 12.2131 16.5164C12.2131 16.5164 12.2131 16.5164 12.2131 16.5164C12.2131 16.5164 12.2131 16.5164 12.2131 16.5164C12.2131 16.5164 12.2131 16.5164 12.2131 16.5164C12.2131 16.5164 12.2131 16.5164 12.2131 16.5164C12.2131 16.5164 12.2131 16.5164 12.2131 16.5164C12.2131 16.5164 12.2131 16.5164 12.2131 16.5164C12.2131 16.5164 12.2131 16.5164 12.2131 16.5164C12.2131 16.5164 12.2131 16.5164 12.2131 16.5164C12.2131 16.5164 12.2131 16.5164 12.2131 16.5164C12.2131 16.5164 12.2131 16.5164 12.2131 16.5164C12.2131 16.5164 12.2131 16.5164 12.2131 16.5164C12.2131 16.5164 12.2131 16.5164 12.2131 16.5164C12.2131 16.5164 12.2131 16.5164 12.2131 16.5164C12.2131 16.5164 12.2131 16.5164 12.2131 16.5164C12.2131 16.5164 12.2131 16.5164 12.2131 16.5164C12.2131 16.5164 12.2131 16.5164 12.2131 16.5164C12.2131 16.5164 12.2131 16.5164 12.2131 16.5164C12.2131 16.5164 12.2131 16.5164 12.2131 16.5164C12.2131 16.5164 12.2131 16.5164 12.2131 16.5164C12.2131 16.5164 12.2131 16.5164 12.2131 16.5164C12.2131 16.5164 12.2131 16.5164 12.2131 16.5164C12.2131 16.5164 12.2131 16.5164 12.2131 16.5164C12.2131 16.5164 12.2131 16.5164 12.2131 16.5164C12.2131 16.5164 12.2131 16.5164 12.2131 16.5164C12.2131 16.5164 12.2131 16.5164 12.2131 16.5164C12.2131 16.5164 12.2131 16.5164 12.2131 16.5164C12.2131 16.5164 12.2131 16.5164 12.2131 16.5164C12.2131 16.5164 12.2131 16.5164 12.2131 16.5164C12.2131 16.5164 12.2131 16.5164 12.2131 16.5164C12.2131 16.5164 12.2131 16.5164 12.2131 16.5164C12.2131 16.5164 12.2131 16.5164 12.2131 16.5164C12.2131 16.5164 12.2131 16.5164 12.2131 16.5164C12.2131 16.5164 12.2131 16.5164 12.2131 16.5164C12.2131 16.5164 12.2131 16.5164 12.2131 16.5164C12.2131 16.5164 12.2131 16.5164 12.2131 16.5164C12.2131 16.5164 12.2131 16.5164 12.2131 16.5164C12.2131 16.5164 12.2131 16.5164 12.2131 16.5164C12.2131 16.5164 12.2131 16.5164 12.2131 16.5164C12.2131 16.5164 12.2131 16.5164 12.2131 16.5164C12.2131 16.5164 12.2131 16.5164 12.2131 16.5164C12.2131 16.5164 12.2131 16.5164 12.2131 16.5164C12.2131 16.5164 12.2131 16.5164 12.2131 16.5164C12.2131 16.5164 12.2131 16.5164 12.2131 16.5164C12.2131 16.5164 12.2131 16.5164 12.2131 16.5164C12.2131 16.5164 12.2131 16.5164 12.2131 16.5164C12.2131 16.5164 12.2131 16.5164 12.2131 16.5164C12.2131 16.5164 12.2131 16.5164 12.2131 16.5164C12.2131 16.5164 12.2131 16.5164 12.2131 16.5164C12.2131 16.5164 12.2131 16.5164 12.2131 16.5164C12.2131 16.5164 12.2131 16.5164 12.2131 16.5164C12.2131 16.5164 12.2131 16.5164 12.2131 16.5164C12.2131 16.5164 12.2131 16.5164 12.2131 16.5164C12.2131 16.5164 12.2131 16.5164 12.2131 16.5164C12.2131 16.5164 12.2131 16.5164 12.2131 16.5164C12.2131 16.5164 12.2131 16.5164 12.2131 16.5164C12.2131 16.5164 12.2131 16.5164 12.2131 16.5164C12.2131 16.5164 12.2131 16.5164 12.2131 16.5164C12.2131 16.5164 12.2131 16.5164 12.2131 16.5164C12.2131 16.5164 12.2131 16.5164 12.2131 16.5164C12.2131 16.5164 12.2131 16.5164 12.2131 16.5164C12.2131 16.5164 12.2131 16.5164 12.2131 16.5164C12.2131 16.5164 12.2131 16.5164 12.2131 16.5164C12.2131 16.5164 12.2131 16.5164 12.2131 16.5164C12.2131 16.5164 12.2131 16.5164 12.2131 16.5164C12.2131 16.5164 12.2131 16.5164 12.2131 16.5164C12.2131 16.5164 12.2131 16.5164 12.2131 16.5164C12.2131 16.5164 12.2131 16.5164 12.2131 16.5164C12.2131 16.5164 12.2131 16.5164 12.2131 16.5164C12.2131 16.5164 12.2131 16.5164 12.2131 16.5164C12.2131 16.5164 12.2131 16.5164 12.2131 16.5164C12.2131 16.5164 12.2131 16.5164 12.2131 16.5164C12.2131 16.5164 12.2131 16.5164 12.2131 16.5164C12.2131 16.5164 12.2131 16.5164 12.2131 16.5164C12.2131 16.5164 12.2131 16.5164 12.2131 16.5164C12.2131 16.5164 12.2131 16.5164 12.2131 16.5164C12.2131 16.5164 12.2131 16.5164 12.2131 16.5164C12.2131 16.5164 12.2131 16.5164 12.2131 16.5164C12.2131 16.5164 12.2131 16.5164 12.2131 16.5164C12.2131 16.5164 12.2131 16.5164 12.2131 16.5164C12.2131 16.5164 12.2131 16.5164 12.2131 16.5164C12.2131 16.5164 12.2131 16.5164 12.2131 16.5164C12.2131 16.5164 12.2131 16.5164 12.2131 16.5164C12.2131 16.5164 12.2131 16.5164 12.2131 16.5164C12.2131 16.5164 12.2131 16.5164 12.2131 16.5164C12.2131 16.5164 12.2131 16.5164 12.2131 16.5164C12.2131 16.5164 12.2131 16.5164 12.2131 16.5164C12.2131 16.5164 12.2131 16.5164 12.2131 16.5164C12.2131 16.5164 12.2131 16.5164 12.2131 16.5164C12.2131 16.5164 12.2131 16.5164 12.2131 16.5164C12.2131 16.5164 12.2131 16.5164 12.2131 16.5164C12.2131 16.5164 12.2131 16.5164 12.2131 16.5164C12.2131 16.5164 12.2131 16.5164 12.2131 16.5164C12.2131 16.5164 12.2131 16.5164 12.2131 16.5164C12.2131 16.5164 12.2131 16.5164 12.2131 16.5164C12.2131 16.5164 12.2131 16.5164 12.2131 16.5164C12.2131 16.5164 12.2131 16.5164 12.2131 16.5164C12.2131 16.5164 12.2131 16.5164 12.2131 16.5164C12.2131 16.5164 12.2131 16.5164 12.2131 16.5164C12.2131 16.5164 12.2131 16.5164 12.2131 16.5164C12.2131 16.5164 12.2131 16.5164 12.2131 16.5164C12.2131 16.5164 12.2131 16.5164 12.2131 16.5164C12.2131 16.5164 12.2131 16.5164 12.2131 16.5164C12.2131 16.5164 12.2131 16.5164 12.2131 16.5164C12.2131 16.5164 12.2131 16.5164 12.2131 16.5164C12.2131 16.5164 12.2131 16.5164 12.2131 16.5164C12.2131 16.5164 12.2131 16.5164 12.2131 16.5164C12.2131 16.5164 12.2131 16.5164 12.2131 16.5164C12.2131 16.5164 12.2131 16.5164 12.2131 16.5164C12.2131 16.5164 12.2131 16.5164 12.2131 16.5164C12.2131 16.5164 12.2131 16.5164 12.2131 16.5164C12.2131 16.5164 12.2131 16.5164 12.2131 16.5164C12.2131 16.5164 12.2131 16.5164 12.2131 16.5164C12.2131 16.5164 12.2131 16.5164 12.2131 16.5164C12.2131 16.5164 12.2131 16.5164 12.2131 16.5164C12.2131 16.5164 12.2131 16.5164 12.2131 16.5164C12.2131 16.5164 12.2131 16.5164 12.2131 16.5164C12.2131 16.5164 12.2131 16.5164 12.2131 16.5164C12.2131 16.5164 12.2131 16.5164 12.2131 16.5164C12.2131 16.5164 12.2131 16.5164 12.2131 16.5164C12.2131 16.5164 12.2131 16.5164 12.2131 16.5164C12.2131 16.5164 12.2131 16.5164 12.2131 16.5164C12.2131 16.5164 12.2131 16.5164 12.2131 16.5164C12.2131 16.5164 12.2131 16.5164 12.2131 16.5164C12.2131 16.5164 12.2131 16.5164 12.2131 16.5164C12.2131 16.5164 12.2131 16.5164 12.2131 16.5164C12.2131 16.5164 12.2131 16.5164 12.2131 16.5164C12.2131 16.5164 12.2131 16.5164 12.2131 16.5164C12.2131 16.5164 12.2131 16.5164 12.2131 16.5164C12.2131 16.5164 12.2131 16.5164 12.2131 16.5164C12.2131 16.5164 12.2131 16.5164 12.2131 16.5164C12.2131 16.5164 12.2131 16.5164 12.2131 16.5164C12.2131 16.5164 12.2131 16.5164 12.2131 16.5164C12.2131 16.5164 12.2131 16.5164 12.2131 16.5164C12.2131 16.5164 12.2131 16.5164 12.2131 16.5164C12.2131 16.5164 12.2131 16.5164 12.2131 16.5164C12.2131 16.5164 12.2131 16.5164 12.2131 16.5164C12.2131 16.5164 12.2131 16.5164 12.2131 16.5164C12.2131 16.5164 12.2131 16.5164 12.2131 16.5164C12.2131 16.5164 12.2131 16.5164 12.2131 16.5164C12.2131 16.5164 12.2131 16.5164 12.2131 16.5164C12.2131 16.5164 12.2131 16.5164 12.2131 16.5164C12.2131 16.5164 12.2131 16.5164 12.2131 16.5164C12.2131 16.5164 12.2131 16.5164 12.2131 16.5164C12.2131 16.5164 12.2131 16.5164 12.2131 16.5164C12.2131 16.5164 12.2131 16.5164 12.2131 16.5164C12.2131 16.5164 12.2131 16.5164 12.2131 16.5164C12.2131 16.5164 12.2131 16.5164 12.2131 16.5164C12.2131 16.5164 12.2131 16.5164 12.2131 16.5164C12.2131 16.5164 12.2131 16.5164 12.2131 16.5164C12.2131 16.5164 12.2131 16.5164 12.2131 16.5164C12.2131 16.5164 12.2131 16.5164 12.2131 16.5164C12.2131 16.5164 12.2131 16.5164 12.2131 16.5164C12.2131 16.5164 12.2131 16.5164 12.2131 16.5164C12.2131 16.5164 12.2131 16.5164 12.2131 16.5164C12.2131 16.5164 12.2131 16.5164 12.2131 16.5164C12.2131 16.5164 12.2131 16.5164 12.2131 16.5164C12.2131 16.5164 12.2131 16.5164 12.2131 16.5164C12.2131 16.5164 12.2131 16.5164 12.2131 16.5164C12.2131 16.5164 12.2131 16.5164 12.2131 16.5164C12.2131 16.5164 12.2131 16.5164 12.2131 16.5164C12.2131 16.5164 12.2131 16.5164 12.2131 16.5164C12.2131 16.5164 12.2131 16.5164 12.2131 16.5164C12.2131 16.5164 12.2131 16.5164 12.2131 16.5164C12.2131 16.5164 12.2131 16.5164 12.2131 16.5164C12.2131 16.5164 12.2131 16.5164 12.2131 16.5164C12.2131 16.5164 12.2131 16.5164 12.2131 16.5164C12.2131 16.5164 12.2131 16.5164 12.2131 16.5164C12.2131 16.5164 12.2131 16.5164 12.2131 16.5164C12.2131 16.5164 12.2131 16.5164 12.2131 16.5164C12.2131 16.5164 12.2131 16.5164 12.2131 16.5164C12.2131 16.5164 12.2131 16.5164 12.2131 16.5164C12.2131 16.5164 12.2131 16.5164 12.2131 16.5164C12.2131 16.5164 12.2131 16.5164 12.2131 16.5164C12.2131 16.5164 12.2131 16.5164 12.2131 16.5164C12.2131 16.5164 12.2131 16.5164 12.2131 16.5164C12.2131 16.5164 12.2131 16.5164 12.2131 16.5164C12.2131 16.5164 12.2131 16.5164 12.2131 16.5164C12.2131 16.5164 12.2131 16.5164 12.2131 16.5164C12.2131 16.5164 12.2131 16.5164 12.2131 16.5164C12.2131 16.5164 12.2131 16.5164 12.2131 16.5164C12.2131 16.5164 12.2131 16.5164 12.2131 16.5164C12.2131 16.5164 12.2131 16.5164 12.2131 16.5164C12.2131 16.5164 12.2131 16.5164 12.2131 16.5164C12.2131 16.5164 12.2131 16.5164 12.2131 16.5164C12.2131 16.5164 12.2131 16.5164 12.2131 16.5164C12.2131 16.5164 12.2131 16.5164 12.2131 16.5164C12.2131 16.5164 12.2131 16.5164 12.2131 16.5164C12.2131 16.5164 12.2131 16.5164 12.2131 16.5164C12.2131 16.5164 12.2131 16.5164 12.2131 16.5164C12.2131 16.5164 12.2131 16.5164 12.2131 16.5164C12.2131 16.5164 12.2131 16.5164 12.2131 16.5164C12.2131 16.5164 12.2131 16.5164 12.2131 16.5164C12.2131 16.5164 12.2131 16.5164 12.2131 16.5164C12.2131 16.5164 12.2131 16.5164 12.2131 16.5164C12.2131 16.5164 12.2131 16.5164 12.2131 16.5164C12.2131 16.5164 12.2131 16.5164 12.2131 16.5164C12.2131 16.5164 12.2131 16.5164 12.2131 16.5164C12.2131 16.5164 12.2131 16.5164 12.2131 16.5164C12.2131 16.5164 12.2131 16.5164 12.2131 16.5164C12.2131 16.5164 12.2131 16.5164 12.2131 16.5164C12.2131 16.5164 12.2131 16.5164 12.2131 16.5164C12.2131 16.5164 12.2131 16.5164 12.2131 16.5164C12.2131 16.5164 12.2131 16.5164 12.2131 16.5164C12.2131 16.5164 12.2131 16.5164 12.2131 16.5164C12.2131 16.5164 12.2131 16.5164 12.2131 16.5164C12.2131 16.5164 12.2131 16.5164 12.2131 16.5164C12.2131 16.5164 12.2131 16.5164 12.2131 16.5164C12.2131 16.5164 12.2131 16.5164 12.2131 16.5164C12.2131 16.5164 12.2131 16.5164 12.2131 16.5164C12.2131 16.5164 12.2131 16.5164 12.2131 16.5164C12.2131 16.5164 12.2131 16.5164 12.2131 16.5164C12.2131 16.5164 12.2131 16.5164 12.2131 16.5164C12.2131 16.5164 12.2131 16.5164 12.2131 16.5164C12.2131 16.5164 12.2131 16.5164 12.2131 16.5164C12.2131 16.5164 12.2131 16.5164 12.2131 16.5164C12.2131 16.5164 12.2131 16.5164 12.2131 16.5164C12.2131 16.5164 12.2131 16.5164 12.2131 16.5164C12.2131 16.5164 12.2131 16.5164 12.2131 16.5164C12.2131 16.5164 12.2131 16.5164 12.2131 16.5164C12.2131 16.5164 12.2131 16.5164 12.2131 16.5164C12.2131 16.5164 12.2131 16.5164 12.2131 16.5164C12.2131 16.5164 12.2131 16.5164 12.2131 16.5164C12.2131 16.5164 12.2131 16.5164 12.2131 16.5164C12.2131 16.5164 12.2131 16.5164 12.2131 16.5164C12.2131 16.5164 12.2131 16.5164 12.2131 16.5164C12.2131 16.5164 12.2131 16.5164 12.2131 16.5164C12.2131 16.5164 12.2131 16.5164 12.2131 16.5164C12.2131 16.5164 12.2131 16.5164 12.2131 16.5164C12.2131 16.5164 12.2131 16.5164 12.2131 16.5164C12.2131 16.5164 12.2131 16.5164 12.2131 16.5164C12.2131 16.5164 12.2131 16.5164 12.2131 16.5164C12.2131 16.5164 12.2131 16.5164 12.2131 16.5164C12.2131 16.5164 12.2131 16.5164 12.2131 16.5164C12.2131 16.5164 12.2131 16.5164 12.2131 16.5164C12.2131 16.5164 12.2131 16.5164 12.2131 16.5164C12.2131 16.5164 12.2131 16.5164 12.2131 16.5164C12.2131 16.5164 12.2131 16.5164 12.2131 16.5164C12.2131 16.5164 12.2131 16.5164 12.2131 16.5164C12.2131 16.5164 12.2131 16.5164 12.2131 16.5164C12.2131 16.5164 12.2131 16.5164 12.2131 16.5164C12.2131 16.5164 12.2131 16.5164 12.2131 16.5164C12.2131 16.5164 12.2131 16.5164 12.2131 16.5164C12.2131 16.5164 12.2131 16.5164 12.2131 16.5164C12.2131 16.5164 12.2131 16.5164 12.2131 16.5164C12.2131 16.5164 12.2131 16.5164 12.2131 16.5164C12.2131 16.5164 12.2131 16.5164 12.2131 16.5164C12.2131 16.5164 12.2131 16.5164 12.2131 16.5164C12.2131 16.5164 12.2131 16.5164 12.2131 16.5164C12.2131 16.5164 12.2131 16.5164 12.2131 16.5164C12.2131 16.5164 12.2131 16.5164 12.2131 16.5164C12.2131 16.5164 12.2131 16.5164 12.2131 16.5164C12.2131 16.5164 12.2131 16.5164 12.2131 16.5164C12.2131 16.5164 12.2131 16.5164 12.2131 16.5164C12.2131 16.5164 12.2131 16.5164 12.2131 16.5164C12.2131 16.5164 12.2131 16.5164 12.2131 16.5164C12.2131 16.5164 12.2131 16.5164 12.2131 16.5164C12.2131 16.5164 12.2131 16.5164 12.2131 16.5164C12.2131 16.5164 12.2131 16.5164 12.2131 16.5164C12.2131 16.5164 12.2131 16.5164 12.2131 16.5164C12.2131 16.5164 12.2131 16.5164 12.2131 16.5164C12.2131 16.5164 12.2131 16.5164 12.2131 16.5164C12.2131 16.5164 12.2131 16.5164 12.2131 16.5164C12.2131 16.5164 12.2131 16.5164 12.2131 16.5164C12.2131 16.5164 12.2131 16.5164 12.2131 16.5164C12.2131 16.5164 12.2131 16.5164 12.2131 16.5164C12.2131 16.5164 12.2131 16.5164 12.2131 16.5164C12.2131 16.5164 12.2131 16.5164 12.2131 16.5164C12.2131 16.5164 12.2131 16.5164 12.2131 16.5164C12.2131 16.5164 12.2131 16.5164 12.2131 16.5164C12.2131 16.5164 12.2131 16.5164 12.2131 16.5164C12.2131 16.5164 12.2131 16.5164 12.2131 16.5164C12.2131 16.5164 12.2131 16.5164 12.2131 16.5164C12.2131 16.5164 12.2131 16.5164 12.2131 16.5164C12.2131 16.5164 12.2131 16.5164 12.2131 16.5164C12.2131 16.5164 12.2131 16.5164 12.2131 16.5164C12.2131 16.5164 12.2131 16.5164 12.2131 16.5164C12.2131 16.5164 12.2131 16.5164 12.2131 16.5164C12.2131 16.5164 12.2131 16.5164 12.2131 16.5164C12.2131 16.5164 12.2131 16.5164 12.2131 16.5164C12.2131 16.5164 12.2131 16.5164 12.2131 16.5164C12.2131 16.5164 12.2131 16.5164 12.2131 16.5164C12.2131 16.5164 12.2131 16.5164 12.2131 16.5164C12.2131 16.5164 12.2131 16.5164 12.2131 16.5164C12.2131 16.5164 12.2131 16.5164 12.2131 16.5164C12.2131 16.5164 12.2131 16.5164 12.2131 16.5164C12.2131 16.5164 12.2131 16.5164 12.2131 16.5164C12.2131 16.5164 12.2131 16.5164 12.2131 16.5164C12.2131 16.5164 12.2131 16.5164 12.2131 16.5164C12.2131 16.5164 12.2131 16.5164 12.2131 16.5164C12.2131 16.5164 12.2131 16.5164 12.2131 16.5164C12.2131 16.5164 12.2131 16.5164 12.2131 16.5164C12.2131 16.5164 12.2131 16.5164 12.2131 16.5164C12.2131 16.5164 12.2131 16.5164 12.2131 16.5164C12.2131 16.5164 12.2131 16.5164 12.2131 16.5164C12.2131 16.5164 12.2131 16.5164 12.2131 16.5164C12.2131 16.5164 12.2131 16.5164 12.2131 16.5164C12.2131 16.5164 12.2131 16.5164 12.2131 16.5164C12.2131 16.5164 12.2131 16.5164 12.2131 16.5164C12.2131 16.5164 12.2131 16.5164 12.2131 16.5164C12.2131 16.5164 12.2131 16.5164 12.2131 16.5164C12.2131 16.5164 12.2131 16.5164 12.2131 16.5164C12.2131 16.5164 12.2131 16.5164 12.2131 16.5164C12.2131 16.5164 12.2131 16.5164 12.2131 16.5164C12.2131 16.5164 12.2131 16.5164 12.2131 16.5164C12.2131 16.5164 12.2131 16.5164 12.2131 16.5164C12.2131 16.5164 12.2131 16.5164 12.2131 16.5164C12.2131 16.5164 12.2131 16.5164 12.2131 16.5164C12.2131 16.5164 12.2131 16.5164 12.2131 16.5164C12.2131 16.5164 12.2131 16.5164 12.2131 16.5164C12.2131 16.5164 12.2131 16.5164 12.2131 16.5164C12.2131 16.5164 12.2131 16.5164 12.2131 16.5164C12.2131 16.5164 12.2131 16.5164 12.2131 16.5164C12.2131 16.5164 12.2131 16.5164 12.2131 16.5164C12.2131 16.5164 12.2131 16.5164 12.2131 16.5164C12.2131 16.5164 12.2131 16.5164 12.2131 16.5164C12.2131 16.5164 12.2131 16.5164 12.2131 16.5164C12.2131 16.5164 12.2131 16.5164 12.2131 16.5164C12.2131 16.5164 12.2131 16.5164 12.2131 16.5164C12.2131 16.5164 12.2131 16.5164 12.2131 16.5164C12.2131 16.5164 12.2131 16.5164 12.2131 16.5164C12.2131 16.5164 12.2131 16.5164 12.2131 16.5164C12.2131 16.5164 12.2131 16.5164 12.2131 16.5164C12.2131 16.5164 12.2131 16.5164 12.2131 16.5164C12.2131 16.5164 12.2131 16.5164 12.2131 16.5164C12.2131 16.5164 12.2131 16.5164 12.2131 16.5164C12.2131 16.5164 12.2131 16.5164 12.2131 16.5164C12.2131 16.5164 12.2131 16.5164 12.2131 16.5164C12.2131 16.5164 12.2131 16.5164 12.2131 16.5164C12.2131 16.5164 12.2131 16.5164 12.2131 16.5164C12.2131 16.5164 12.2131 16.5164 12.2131 16.5164C12.2131 16.5164 12.2131 16.5164 12.2131 16.5164C12.2131 16.5164 12.2131 16.5164 12.2131 16.5164C12.2131 16.5164 12.2131 16.5164 12.2131 16.5164C12.2131 16.5164 12.2131 16.5164 12.2131 16.5164C12.2131 16.5164 12.2131 16.5164 12.2131 16.5164C12.2131 16.5164 12.2131 16.5164 12.2131 16.5164C12.2131 16.5164 12.2131 16.5164 12.2131 16.5164C12.2131 16.5164 12.2131 16.5164 12.2131 16.5164C12.2131 16.5164 12.2131 16.5164 12.2131 16.5164C12.2131 16.5164 12.2131 16.5164 12.2131 16.5164C12.2131 16.5164 12.2131 16.5164 12.2131 16.5164C12.2131 16.5164 12.2131 16.5164 12.2131 16.5164C12.2131 16.5164 12.2131 16.5164 12.2131 16.5164C12.2131 16.5164 12.2131 16.5164 12.2131 16.5164C12.2131 16.5164 12.2131 16.5164 12.2131 16.5164C12.2131 16.5164 12.2131 16.5164 12.2131 16.5164C12.2131 16.5164 12.2131 16.5164 12.2131 16.5164C12.2131 16.5164 12.2131 16.5164 12.2131 16.5164C12.2131 16.5164 12.2131 16.5164 12.2131 16.5164C12.2131 16.5164 12.2131 16.5164 12.2131 16.5164C12.2131 16.5164 12.2131 16.5164 12.2131 16.5164C12.2131 16.5164 12.2131 16.5164 12.2131 16.5164C12.2131 16.5164 12.2131 16.5164 12.2131 16.5164C12.2131 16.5164 12.2131 16.5164 12.2131 16.5164C12.2131 16.5164 12.2131 16.5164 12.2131 16.5164C12.2131 16.5164 12.2131 16.5164 12.2131 16.5164C12.2131 16.5164 12.2131 16.5164 12.2131 16.5164C12.2131 16.5164 12.2131 16.5164 12.2131 16.5164C12.2131 16.5164 12.2131 16.5164 12.2131 16.5164C12.2131 16.5164 12.2131 16.5164 12.2131 16.5164C12.2131 16.5164 12.2131 16.5164 12.2131 16.5164C12.2131 16.5164 12.2131 16.5164 12.2131 16.5164C12.2131 16.5164 12.2131 16.5164 12.2131 16.5164C12.2131 16.5164 12.2131 16.5164 12.2131 16.5164C12.2131 16.5164 12.2131 16.5164 12.2131 16.5164C12.2131 16.5164 12.2131 16.5164 12.2131 16.5164C12.2131 16.5164 12.2131 16.5164 12.2131 16.5164C12.2131 16.5164 12.2131 16.5164 12.2131 16.5164C12.2131 16.5164 12.2131 16.5164 12.2131 16.5164C12.2131 16.5164 12.2131 16.5164 12.2131 16.5164C12.2131 16.5164 12.2131 16.5164 12.2131 16.5164C12.2131 16.5164 12.2131 16.5164 12.2131 16.5164C12.2131 16.5164 12.2131 16.5164 12.2131 16.5164C12.2131 16.5164 12.2131 16.5164 12.2131 16.5164C12.2131 16.5164 12.2131 16.5164 12.2131 16.5164C12.2131 16.5164 12.2131 16.5164 12.2131 16.5164C12.2131 16.5164 12.2131 16.5164 12.2131 16.5164C12.2131 16.5164 12.2131 16.5164 12.2131 16.5164H14.2131ZM15.7049 18.0082C14.881 18.0082 14.2131 17.3403 14.2131 16.5164H12.2131C12.2131 18.4449 13.7765 20.0082 15.7049 20.0082V18.0082ZM17.1967 16.5164C17.1967 17.3403 16.5288 18.0082 15.7049 18.0082V20.0082C17.6334 20.0082 19.1967 18.4449 19.1967 16.5164H17.1967ZM21 15.5164L18.1967 15.5164L18.1967 17.5164L21 17.5164L21 15.5164ZM20 9.66395V16.5164H22V9.66395H20ZM16.6393 10.664H21V8.66395H16.6393V10.664ZM12.9786 5.50632L15.7819 10.1784L17.4968 9.14946L14.6936 4.47733L12.9786 5.50632ZM6.98361 5.99182H13.8361V3.99182H6.98361V5.99182Z" fill="#89623D"/>
<circle cx="6.9918" cy="16.4918" r="2.4918" stroke="#89623D" stroke-width="2" stroke-linejoin="round"/>
<circle cx="15.7118" cy="16.4918" r="2.4918" stroke="#89623D" stroke-width="2" stroke-linejoin="round"/>
</svg>
