<svg width="16" height="16" viewBox="0 0 16 16" fill="none" xmlns="http://www.w3.org/2000/svg">
<path fill-rule="evenodd" clip-rule="evenodd" d="M0.707078 0.927106C1.0976 0.536582 1.73077 0.536582 2.12129 0.927106L14.8492 13.655C15.2397 14.0456 15.2397 14.6787 14.8492 15.0692C14.4587 15.4598 13.8255 15.4598 13.435 15.0692L0.707078 2.34132C0.316554 1.9508 0.316554 1.31763 0.707078 0.927106Z" fill="#89623D"/>
<path fill-rule="evenodd" clip-rule="evenodd" d="M1.12129 15.0692C0.730767 14.6787 0.730767 14.0456 1.12129 13.655L13.8492 0.927108C14.2397 0.536584 14.8729 0.536584 15.2634 0.927108C15.654 1.31763 15.654 1.9508 15.2634 2.34132L2.5355 15.0692C2.14498 15.4598 1.51182 15.4598 1.12129 15.0692Z" fill="#89623D"/>
</svg>
