<svg width="25" height="26" viewBox="0 0 25 26" fill="none" xmlns="http://www.w3.org/2000/svg">
<path d="M18 0.5C21.866 0.5 25 3.63401 25 7.5V18.5C25 22.366 21.866 25.5 18 25.5H17.2526V15.8158H20.4915L20.9798 12.0397H17.2526V9.63086C17.2526 9.02322 17.3801 8.56749 17.6351 8.26367C17.8901 7.95985 18.3865 7.80794 19.1243 7.80794L21.11 7.79167V4.42253C20.4264 4.32487 19.4607 4.27604 18.2129 4.27604C16.7372 4.27604 15.5572 4.71007 14.6729 5.57812C13.7885 6.44618 13.3464 7.67231 13.3464 9.25651V12.0397H10.0911V15.8158H13.3464V25.5H7.00001C3.13402 25.5 7.39098e-06 22.366 7.39098e-06 18.5V7.5C7.39098e-06 3.634 3.13401 0.5 7.00001 0.5H18Z" fill="#89623D"/>
</svg>
