<svg width="25" height="26" viewBox="0 0 25 26" fill="none" xmlns="http://www.w3.org/2000/svg">
<path d="M16.5 13C16.5 13.7911 16.2654 14.5645 15.8259 15.2223C15.3864 15.8801 14.7616 16.3928 14.0307 16.6955C13.2998 16.9983 12.4956 17.0775 11.7196 16.9231C10.9437 16.7688 10.231 16.3878 9.67157 15.8284C9.11216 15.269 8.7312 14.5563 8.57686 13.7804C8.42252 13.0044 8.50173 12.2002 8.80448 11.4693C9.10723 10.7384 9.61992 10.1136 10.2777 9.67412C10.9355 9.2346 11.7089 9 12.5 9C13.5599 9.0033 14.5754 9.42578 15.3248 10.1752C16.0742 10.9246 16.4967 11.9401 16.5 13V13ZM25 7.5V18.5C25 20.3565 24.2625 22.137 22.9497 23.4497C21.637 24.7625 19.8565 25.5 18 25.5H7C5.14348 25.5 3.36301 24.7625 2.05025 23.4497C0.737498 22.137 0 20.3565 0 18.5V7.5C0 5.64348 0.737498 3.86301 2.05025 2.55025C3.36301 1.2375 5.14348 0.5 7 0.5H18C19.8565 0.5 21.637 1.2375 22.9497 2.55025C24.2625 3.86301 25 5.64348 25 7.5V7.5ZM18.5 13C18.5 11.8133 18.1481 10.6533 17.4888 9.66658C16.8295 8.67988 15.8925 7.91085 14.7961 7.45672C13.6997 7.0026 12.4933 6.88378 11.3295 7.11529C10.1656 7.3468 9.09647 7.91824 8.25736 8.75736C7.41824 9.59647 6.8468 10.6656 6.61529 11.8295C6.38378 12.9933 6.5026 14.1997 6.95672 15.2961C7.41085 16.3925 8.17988 17.3295 9.16658 17.9888C10.1533 18.6481 11.3133 19 12.5 19C14.0913 19 15.6174 18.3679 16.7426 17.2426C17.8679 16.1174 18.5 14.5913 18.5 13ZM20.5 6.5C20.5 6.20333 20.412 5.91332 20.2472 5.66665C20.0824 5.41997 19.8481 5.22771 19.574 5.11418C19.2999 5.00065 18.9983 4.97094 18.7074 5.02882C18.4164 5.0867 18.1491 5.22956 17.9393 5.43934C17.7296 5.64912 17.5867 5.91639 17.5288 6.20736C17.4709 6.49834 17.5007 6.79994 17.6142 7.07403C17.7277 7.34811 17.92 7.58238 18.1666 7.7472C18.4133 7.91203 18.7033 8 19 8C19.3978 8 19.7794 7.84196 20.0607 7.56066C20.342 7.27936 20.5 6.89782 20.5 6.5Z" fill="#89623D"/>
</svg>
