<svg width="20" height="30" viewBox="0 0 20 30" fill="none" xmlns="http://www.w3.org/2000/svg">
<g clip-path="url(#clip0_186_237)">
<path d="M17.8989 6.68764C18.3531 7.1419 15.8169 9.52672 14.492 10.6624L6.54256 8.95891C4.64984 7.82328 1.31865 5.09776 3.13566 3.28075C5.40693 1.00948 9.94946 4.41638 11.0851 4.41638C12.2207 4.41638 13.3564 2.71293 14.492 2.71293C15.6276 2.71293 15.6276 4.9842 15.6276 5.55201C15.6276 6.11983 17.3311 6.11983 17.8989 6.68764Z" fill="#68B530" stroke="#202020" stroke-width="3"/>
<path d="M8.24593 8.39109C11.4257 8.39109 13.3563 9.52672 13.9241 10.0945C20.7379 18.044 9.94938 27.6968 7.1103 27.6968C4.27121 27.6968 1.99995 18.044 1.99995 14.6371C1.99995 11.2302 4.27122 8.39109 8.24593 8.39109Z" fill="#ED6E00" stroke="#202020" stroke-width="3"/>
</g>
<defs>
<clipPath id="clip0_186_237">
<rect width="29" height="20" fill="white" transform="translate(20 0.5) rotate(90)"/>
</clipPath>
</defs>
</svg>
