<svg width="225" height="197" viewBox="0 0 225 197" fill="none" xmlns="http://www.w3.org/2000/svg">
<path d="M125.664 76C115.554 108.012 52.6531 130.056 22.4661 137.076C30.0714 133.449 50.2662 122.755 70.2037 108.995C90.1412 95.2354 115.484 81.2652 125.664 76Z" fill="#68B530"/>
<path d="M71.9587 157.786C54.8294 148.238 29.9543 140.235 19.658 137.427C33.6985 135.672 61.7794 145.851 103.901 161.296C137.598 173.651 149.766 190.079 151.638 196.748C132.216 187.739 89.0881 167.333 71.9587 157.786Z" fill="#68B530"/>
<path d="M35.8046 134.97C6.88126 131.319 -0.115568 135.087 0.00143658 137.427C1.40547 141.288 17.552 138.831 50.5471 138.48C83.5422 138.129 127.419 126.195 156.553 118.121C179.86 111.663 211.896 93.9016 225 85.8284C209.204 88.6365 172.348 97.4118 141.459 108.293C111.667 118.788 71.9588 139.533 35.8046 134.97Z" fill="#68B530"/>
<path d="M45 123C43.2115 125.545 38.9077 131.109 36 133" stroke="#202020" stroke-width="4" stroke-linecap="round" stroke-linejoin="round"/>
<path d="M65 122C65.7467 125.258 68.392 132.82 73 137" stroke="#202020" stroke-width="4" stroke-linecap="round" stroke-linejoin="round"/>
<path d="M51.85 2.03429C57.6687 3.10004 56.1217 29.1222 54.6208 42L38.3421 40.8344C34.0126 35.5056 21.3707 14.024 27.7783 10.8601C32.3415 8.60683 37.9587 23.4139 40.8143 32.1246C37.9388 22.1679 33.3675 3.39109 39.7275 3.19998C43.8622 3.07573 46.7115 22.8337 47.8259 34.7271C46.8041 22.0691 46.3998 1.03604 51.85 2.03429Z" fill="#68B530"/>
<path d="M54.6208 42C56.1217 29.1222 57.6687 3.10004 51.85 2.03429C46.0312 0.968533 46.8855 25.0146 48.04 37.1708C47.1164 25.7917 44.1609 3.06676 39.7275 3.19998C31.0687 3.46017 42.6715 38.17 42.6715 38.17C42.6715 38.17 34.1858 7.69612 27.7783 10.8601C21.3707 14.024 34.0126 35.5056 38.3421 40.8344L54.6208 42Z" stroke="#202020" stroke-width="4" stroke-linecap="round" stroke-linejoin="round"/>
<path d="M61.4102 45.9301C49.6958 34.1462 40.2222 40.0158 36.9498 44.4237C35.1194 44.4237 32.2906 47.7714 30.2939 57.6471C28.2971 67.5229 36.9498 87.2743 41.9417 111.21C45.9352 130.359 50.8162 134.365 52.7575 133.975C63.5734 132.301 68.0661 111.043 70.8948 99.4935C73.7236 87.9439 76.0532 60.66 61.4102 45.9301Z" fill="#ED6E00" stroke="#202020" stroke-width="4" stroke-linecap="round" stroke-linejoin="round"/>
<path d="M72 78C75.8233 73.5667 83.9759 64.56 86 64" stroke="#202020" stroke-width="4" stroke-linecap="round" stroke-linejoin="round"/>
<path d="M58 83C59.0556 79.6477 61.7333 71.9545 64 68" stroke="#202020" stroke-width="4" stroke-linecap="round" stroke-linejoin="round"/>
<path d="M37 89C39.5683 87.8785 45.1639 85.7146 47 86.0313" stroke="#202020" stroke-width="4" stroke-linecap="round" stroke-linejoin="round"/>
<path d="M39 100C41.8251 98.8785 47.9803 96.7146 50 97.0313" stroke="#202020" stroke-width="4" stroke-linecap="round" stroke-linejoin="round"/>
<path d="M43 112L51 108" stroke="#202020" stroke-width="4" stroke-linecap="round" stroke-linejoin="round"/>
<circle cx="48" cy="60" r="2" fill="#202020"/>
<circle cx="57" cy="59" r="2" fill="#202020"/>
<path d="M45 67C45.1569 68.1517 46.2235 70.5539 49.2353 70.9488C52.2471 71.3437 53 69.3583 53 68.3163" stroke="#202020" stroke-width="4" stroke-linecap="round" stroke-linejoin="round"/>
</svg>
