<svg width="562" height="190" viewBox="0 0 562 190" fill="none" xmlns="http://www.w3.org/2000/svg">
<path d="M338.394 32.4935C330.938 26.1607 315.79 16.7211 304.731 11.5196C281.847 0.75867 238.606 -3.41753 217.735 3.12301C195.04 10.2381 168.878 28.8345 149.616 51.554C131.385 73.0582 128.926 74.2646 91.2622 80.2085C68.7896 83.7528 36.2039 104.51 16.2046 128.012C-2.30647 149.768 -3.81953 156.114 5.92144 171.113C12.4131 181.114 13.4513 181.229 132.6 184.826C198.672 186.819 316.513 188.967 394.469 189.595C524.372 190.638 537.164 190.081 547.674 182.921C554.056 178.568 560.122 170.207 561.363 164.051C564.222 149.848 557.178 128.75 545.871 117.658C534.95 106.945 500.49 93.4752 473.527 89.3741C459.357 87.2219 448.943 82.3122 438.461 72.8461C416.694 53.1803 401.524 46.538 375.292 45.199C356.986 44.2621 349.021 41.5221 338.394 32.4935Z" fill="white"/>
</svg>
