<svg width="225" height="121" viewBox="0 0 225 121" fill="none" xmlns="http://www.w3.org/2000/svg">
<path d="M125.664 0C115.555 32.0123 52.6532 54.0558 22.4662 61.0761C30.0715 57.4489 50.2663 46.7548 70.2038 32.9951C90.1413 19.2354 115.484 5.26518 125.664 0Z" fill="#68B530"/>
<path d="M71.9589 81.7857C54.8295 72.2382 29.9544 64.2351 19.6581 61.427C33.6986 59.672 61.7795 69.8513 103.901 85.2958C137.598 97.6514 149.766 114.079 151.639 120.748C132.216 111.739 89.0882 91.3332 71.9589 81.7857Z" fill="#68B530"/>
<path d="M35.8046 58.97C6.88126 55.3195 -0.115568 59.087 0.00143658 61.4271C1.40547 65.2882 17.552 62.8312 50.5471 62.4801C83.5422 62.1291 127.419 50.1947 156.553 42.1215C179.86 35.6628 211.896 17.9016 225 9.82837C209.204 12.6365 172.348 21.4118 141.459 32.2931C111.667 42.7883 71.9588 63.5332 35.8046 58.97Z" fill="#68B530"/>
</svg>
