<svg width="76" height="119" viewBox="0 0 76 119" fill="none" xmlns="http://www.w3.org/2000/svg">
<path d="M5.12393 56.8642C0.438021 80.6061 11.2416 102.291 17.2292 110.166C33.2394 108.409 66.4312 94.7419 58.4261 52.5688C52.0221 18.8302 43.262 4.79853 39.6825 2C31.4822 2.39049 10.9813 27.1868 5.12393 56.8642Z" fill="#FBCA5A" stroke="#202020" stroke-width="4" stroke-linecap="round" stroke-linejoin="round"/>
<path d="M10.0051 39.2915C7.46689 36.493 2.31239 28.2796 2 17.8145" stroke="#202020" stroke-width="4" stroke-linecap="round" stroke-linejoin="round"/>
<path d="M57.6451 46.7113C61.0294 45.6049 68.9694 40.2682 73.6553 27.7725" stroke="#202020" stroke-width="4" stroke-linecap="round" stroke-linejoin="round"/>
<path d="M40.2682 101.576C40.8539 104.505 43.0407 111.573 47.1018 116.415" stroke="#202020" stroke-width="4" stroke-linecap="round" stroke-linejoin="round"/>
<path d="M13.91 105.285C11.6972 108.214 7.1935 114.657 6.8811 117" stroke="#202020" stroke-width="4" stroke-linecap="round" stroke-linejoin="round"/>
<path d="M59.5976 66.4312C52.4386 61.8103 31.4041 55.0678 4.53821 65.0644" stroke="#202020" stroke-width="4" stroke-linecap="round" stroke-linejoin="round"/>
<path d="M4.07344 65.2598C30.9393 55.2632 52.4615 62.2009 59.6205 66.8218C58.4457 97.763 31.2477 108.628 17.2292 110.166C11.9903 103.276 3.08475 85.4225 4.07344 65.2598Z" fill="#5B2B18" stroke="#202020" stroke-width="4" stroke-linecap="round" stroke-linejoin="round"/>
<path d="M31.2869 35.5826C32.5885 36.4287 35.9337 38.0036 38.9015 37.5351C41.8692 37.0665 43.6525 33.3047 44.1731 31.4824" stroke="#202020" stroke-width="4" stroke-linecap="round" stroke-linejoin="round"/>
<path d="M18.1554 71C17.8951 72.7572 17.6554 74.4694 17.6554 76.5" stroke="#89623D" stroke-width="4" stroke-linecap="round" stroke-linejoin="round"/>
<path d="M18.1554 85.5C18.1554 87.5 18.1554 90 19.1554 91.5" stroke="#89623D" stroke-width="4" stroke-linecap="round" stroke-linejoin="round"/>
<path d="M32.4584 69C32.3282 70.9525 32.1985 73.8506 31.2614 76.1935" stroke="#89623D" stroke-width="4" stroke-linecap="round" stroke-linejoin="round"/>
<path d="M43.5874 71.1172C43.5874 73 42.6554 76 42.1554 77.5" stroke="#89623D" stroke-width="4" stroke-linecap="round" stroke-linejoin="round"/>
<path d="M30.1554 85L29.1554 90" stroke="#89623D" stroke-width="4" stroke-linecap="round" stroke-linejoin="round"/>
<path d="M40.1554 85.5C40.1554 86.5 39.6554 88 39.1554 88.5" stroke="#89623D" stroke-width="4" stroke-linecap="round" stroke-linejoin="round"/>
<circle cx="28.163" cy="28.1633" r="2.14771" fill="#202020"/>
<circle cx="38.3158" cy="27.7727" r="2.14771" fill="#202020"/>
</svg>
