<svg width="254" height="142" viewBox="0 0 254 142" fill="none" xmlns="http://www.w3.org/2000/svg">
<path d="M150.105 79.2595C144.914 75.9631 137.05 72.2197 132.629 70.9398C108.932 64.0845 84.2269 69.4718 70.5433 84.4792C62.0425 93.8013 56.4242 96.6897 42.9785 98.6486C29.4621 100.616 18.6013 105.602 9.65042 113.949C6.55586 116.834 3.12049 119.969 2.01449 120.916C0.910094 121.862 0.00503632 124.874 0.00503632 127.609C0.00503632 137.386 -2.71335 137.1 118.161 140.059C179.168 141.553 230.891 142.357 233.102 141.847C251.212 137.66 254 135.761 254 127.609C254 115.789 241.926 107.209 219.489 103.089C205.161 100.457 201.847 99.1396 193.716 92.843C186.862 87.5352 179.361 85.2547 168.754 85.2547C161.056 85.2547 157.993 84.2693 150.105 79.2595Z" fill="white"/>
<path d="M177.124 56.8642C172.438 80.6061 183.242 102.291 189.229 110.166C205.239 108.409 238.431 94.7419 230.426 52.5688C224.022 18.8302 215.262 4.79853 211.683 2C203.482 2.39049 182.981 27.1868 177.124 56.8642Z" fill="#FBCA5A" stroke="#202020" stroke-width="4" stroke-linecap="round" stroke-linejoin="round"/>
<path d="M182.005 39.292C179.467 36.4935 174.312 28.2801 174 17.8149" stroke="#202020" stroke-width="4" stroke-linecap="round" stroke-linejoin="round"/>
<path d="M229.645 46.7113C233.03 45.6049 240.97 40.2682 245.655 27.7725" stroke="#202020" stroke-width="4" stroke-linecap="round" stroke-linejoin="round"/>
<path d="M212.268 101.576C212.854 104.504 215.041 111.572 219.102 116.414" stroke="#202020" stroke-width="4" stroke-linecap="round" stroke-linejoin="round"/>
<path d="M185.91 105.285C183.697 108.214 179.193 114.657 178.881 117" stroke="#202020" stroke-width="4" stroke-linecap="round" stroke-linejoin="round"/>
<path d="M231.598 66.4314C224.439 61.8106 203.404 55.0681 176.538 65.0647" stroke="#202020" stroke-width="4" stroke-linecap="round" stroke-linejoin="round"/>
<path d="M176.073 65.2598C202.939 55.2632 224.461 62.2009 231.62 66.8218C230.446 97.763 203.248 108.628 189.229 110.166C183.99 103.276 175.085 85.4225 176.073 65.2598Z" fill="#5B2B18" stroke="#202020" stroke-width="4" stroke-linecap="round" stroke-linejoin="round"/>
<path d="M203.287 35.5823C204.589 36.4284 207.934 38.0034 210.901 37.5348C213.869 37.0662 215.652 33.3045 216.173 31.4822" stroke="#202020" stroke-width="4" stroke-linecap="round" stroke-linejoin="round"/>
<path d="M190.156 71C189.895 72.7572 189.656 74.4694 189.656 76.5" stroke="#89623D" stroke-width="4" stroke-linecap="round" stroke-linejoin="round"/>
<path d="M190.155 85.5C190.155 87.5 190.155 90 191.155 91.5" stroke="#89623D" stroke-width="4" stroke-linecap="round" stroke-linejoin="round"/>
<path d="M204.458 69C204.328 70.9525 204.199 73.8506 203.261 76.1935" stroke="#89623D" stroke-width="4" stroke-linecap="round" stroke-linejoin="round"/>
<path d="M215.587 71.1172C215.587 73 214.655 76 214.155 77.5" stroke="#89623D" stroke-width="4" stroke-linecap="round" stroke-linejoin="round"/>
<path d="M202.156 85L201.156 90" stroke="#89623D" stroke-width="4" stroke-linecap="round" stroke-linejoin="round"/>
<path d="M212.155 85.5C212.155 86.5 211.655 88 211.155 88.5" stroke="#89623D" stroke-width="4" stroke-linecap="round" stroke-linejoin="round"/>
<circle cx="200.163" cy="28.1628" r="2.14771" fill="#202020"/>
<circle cx="210.316" cy="27.7725" r="2.14771" fill="#202020"/>
</svg>
