<svg width="225" height="150" viewBox="0 0 225 150" fill="none" xmlns="http://www.w3.org/2000/svg">
<path d="M125.664 29C115.555 61.0123 52.6532 83.0558 22.4662 90.0761C30.0715 86.4489 50.2664 75.7548 70.2038 61.9951C90.1413 48.2354 115.484 34.2652 125.664 29Z" fill="#68B530"/>
<path d="M71.9589 110.786C54.8295 101.238 29.9545 93.2351 19.6581 90.427C33.6986 88.672 61.7795 98.8513 103.901 114.296C137.598 126.651 149.766 143.079 151.639 149.748C132.216 140.739 89.0882 120.333 71.9589 110.786Z" fill="#68B530"/>
<path d="M35.8046 87.97C6.88126 84.3195 -0.115568 88.087 0.00143658 90.4271C1.40547 94.2882 17.552 91.8312 50.5471 91.4801C83.5422 91.1291 127.419 79.1947 156.553 71.1215C179.86 64.6628 211.896 46.9016 225 38.8284C209.204 41.6365 172.348 50.4118 141.459 61.2931C111.667 71.7883 71.9588 92.5332 35.8046 87.97Z" fill="#68B530"/>
<path d="M5.61034 37.4207C5.62295 20.3765 14.481 7.26132 18.9084 2.83423C19.784 1.90715 23.5226 4.10204 26.4006 9.56341C29.2787 15.0248 36.4106 23.2486 41.9425 28.4294C47.0565 33.2188 50.4526 42.2442 51.367 51.0316C52.03 57.4036 51.3881 63.6505 49.15 68.0663C42.1372 81.9026 40.0491 89.5023 36.5206 88.5328C21.5562 84.4211 12.6351 72.0971 8.46846 57.9267C6.51365 51.2786 5.60531 44.2242 5.61034 37.4207Z" fill="#F9C04C" stroke="black" stroke-width="4" stroke-linecap="round" stroke-linejoin="round"/>
<path d="M23.9041 41.6559C23.9041 41.6559 25.0029 42.969 26.8897 42.4763C27.9791 42.1918 28.7745 41.0837 29.244 40.2823" stroke="black" stroke-width="3" stroke-linecap="round" stroke-linejoin="round"/>
<circle cx="19.8194" cy="36.297" r="1.69964" transform="rotate(-104.636 19.8194 36.297)" fill="black"/>
<circle cx="26.3973" cy="34.5791" r="1.69964" transform="rotate(-104.636 26.3973 34.5791)" fill="black"/>
<path d="M21.3363 57.3757C16.039 59.6566 10.6556 58.8197 8.46837 57.9268C12.6351 72.0971 21.5562 84.4212 36.5206 88.5329C40.049 89.5024 42.1372 81.9027 49.15 68.0664C51.3881 63.6506 52.0299 57.4037 51.3669 51.0316C49.5872 52.1968 44.7849 54.4775 40.497 55.6346C35.1371 57.081 27.9579 54.5245 21.3363 57.3757Z" fill="#5B2B18" stroke="black" stroke-width="4" stroke-linecap="round" stroke-linejoin="round"/>
<path d="M42.4387 60.2547C44.1417 60.4308 44.1717 61.8507 44.2851 63.0974C44.5028 65.4925 44.1895 66.6324 42.0808 66.8704C40.5745 67.0403 39.8615 65.3848 39.8409 63.3358C39.8256 61.8201 40.1814 60.0214 42.4387 60.2547Z" fill="#956134"/>
<path d="M21.6702 63.5976C23.6716 62.6879 24.169 64.3672 24.9004 65.6528C25.4202 66.5665 26.197 68.6362 24.1277 69.5272C21.9292 70.4738 21.6849 68.8559 21.0943 67.818C20.5038 66.78 18.9463 64.8357 21.6702 63.5976Z" fill="#956134"/>
<path d="M29.0351 71.8343C26.8381 71.9144 27.1432 73.6391 27.0632 75.1159C27.0063 76.1656 27.2359 78.3643 29.4852 78.2371C31.875 78.102 31.3709 76.5454 31.4356 75.3529C31.5002 74.1605 32.0252 71.7252 29.0351 71.8343Z" fill="#956134"/>
<path d="M30.7194 64.706C30.3497 61.8021 32.1662 61.2114 33.1206 61.279C34.8387 61.4008 34.6447 62.8654 34.9668 64.1216C35.5305 66.3198 34.6893 67.2563 33.7259 67.5755C32.7625 67.8946 31.1816 68.3359 30.7194 64.706Z" fill="#956134"/>
<path d="M39.9231 71.9979C38.5284 69.3626 36.6692 69.9356 35.914 70.5515C34.5544 71.6603 35.5747 72.7664 36.0429 74.0015C36.8623 76.1628 38.112 76.4496 39.1015 76.1505C40.091 75.8514 41.6664 75.2921 39.9231 71.9979Z" fill="#956134"/>
</svg>
