<svg width="225" height="121" viewBox="0 0 225 121" fill="none" xmlns="http://www.w3.org/2000/svg">
<path d="M99.3363 0C109.445 32.0123 172.347 54.0558 202.534 61.0761C194.929 57.4489 174.734 46.7548 154.796 32.9951C134.859 19.2354 109.516 5.26518 99.3363 0Z" fill="#68B530"/>
<path d="M153.041 81.7857C170.171 72.2382 195.046 64.2351 205.342 61.427C191.301 59.672 163.22 69.8513 121.099 85.2958C87.4019 97.6514 75.2335 114.079 73.3615 120.748C92.7841 111.739 135.912 91.3332 153.041 81.7857Z" fill="#68B530"/>
<path d="M189.195 58.9699C218.119 55.3194 225.116 59.087 224.999 61.427C223.595 65.2881 207.448 62.8311 174.453 62.4801C141.458 62.1291 97.5813 50.1947 68.4473 42.1214C45.1401 35.6628 13.1044 17.9016 0 9.82831C15.7955 12.6364 52.6518 21.4117 83.5408 32.2931C113.333 42.7882 153.041 63.5331 189.195 58.9699Z" fill="#68B530"/>
</svg>
